<svg width="96" height="96" viewBox="0 0 96 96" fill="none" xmlns="http://www.w3.org/2000/svg">
  <path d="M19 56L48 12L77 56C79.8 60.4 79.3 66.1 75.8 69.8C72.2 73.5 66.3 73.9 62.4 70.6L48 58.2L33.6 70.6C29.7 73.9 23.8 73.5 20.2 69.8C16.7 66.1 16.2 60.4 19 56Z" fill="#FFFFFF"/>
  <path d="M48 30.5C42.8 30.5 38.5 34.8 38.5 40C38.5 46.4 45.2 55.1 47.2 57.6C47.6 58.1 48.4 58.1 48.8 57.6C50.8 55.1 57.5 46.4 57.5 40C57.5 34.8 53.2 30.5 48 30.5Z" fill="#0A0A0A"/>
  <circle cx="48" cy="40" r="3.2" fill="#FFFFFF"/>
</svg>
