<svg width="170" height="170" viewBox="0 0 170 170" fill="none" xmlns="http://www.w3.org/2000/svg">
<g opacity="0.05">
<path d="M134.583 120.417H148.75C153 120.417 155.833 117.583 155.833 113.333V92.0834C155.833 85.7084 150.875 80.0417 145.208 78.625C132.458 75.0834 113.333 70.8334 113.333 70.8334C113.333 70.8334 104.125 60.9167 97.7501 54.5417C94.2084 51.7084 89.9584 49.5834 85.0001 49.5834H35.4167C31.1667 49.5834 27.6251 52.4167 25.5001 55.9584L15.5834 76.5C14.6454 79.2358 14.1667 82.108 14.1667 85V113.333C14.1667 117.583 17.0001 120.417 21.2501 120.417H35.4167" stroke="white" stroke-width="2" stroke-linecap="round" stroke-linejoin="round"/>
<path d="M49.5834 134.583C57.4074 134.583 63.7501 128.241 63.7501 120.417C63.7501 112.593 57.4074 106.25 49.5834 106.25C41.7594 106.25 35.4167 112.593 35.4167 120.417C35.4167 128.241 41.7594 134.583 49.5834 134.583Z" stroke="white" stroke-width="2" stroke-linecap="round" stroke-linejoin="round"/>
<path d="M63.75 120.417H106.25" stroke="white" stroke-width="2" stroke-linecap="round" stroke-linejoin="round"/>
<path d="M120.417 134.583C128.241 134.583 134.583 128.241 134.583 120.417C134.583 112.593 128.241 106.25 120.417 106.25C112.593 106.25 106.25 112.593 106.25 120.417C106.25 128.241 112.593 134.583 120.417 134.583Z" stroke="white" stroke-width="2" stroke-linecap="round" stroke-linejoin="round"/>
</g>
</svg>
