<svg width="24" height="24" viewBox="0 0 24 24" fill="none" xmlns="http://www.w3.org/2000/svg">
<path d="M12 22C17.5228 22 22 17.5228 22 12C22 6.47715 17.5228 2 12 2C6.47715 2 2 6.47715 2 12C2 17.5228 6.47715 22 12 22Z" stroke="#0A0A0A" stroke-width="2" stroke-linecap="round" stroke-linejoin="round"/>
<path d="M8 14C9.2 15.7 14.8 15.7 16 14" stroke="#0A0A0A" stroke-width="2" stroke-linecap="round" stroke-linejoin="round"/>
<path d="M9.00001 10.9C9.49706 10.9 9.90001 10.4971 9.90001 10C9.90001 9.50294 9.49706 9.1 9.00001 9.1C8.50295 9.1 8.10001 9.50294 8.10001 10C8.10001 10.4971 8.50295 10.9 9.00001 10.9Z" fill="#0A0A0A"/>
<path d="M15 10.9C15.4971 10.9 15.9 10.4971 15.9 10C15.9 9.50294 15.4971 9.1 15 9.1C14.5029 9.1 14.1 9.50294 14.1 10C14.1 10.4971 14.5029 10.9 15 10.9Z" fill="#0A0A0A"/>
</svg>
