<svg width="393" height="136" viewBox="0 0 393 136" fill="none" xmlns="http://www.w3.org/2000/svg">
<path d="M28 19L21 12L28 5" stroke="white" stroke-width="2" stroke-linecap="round" stroke-linejoin="round"/>
<path d="M35 12H21" stroke="white" stroke-width="2" stroke-linecap="round" stroke-linejoin="round"/>
<g clip-path="url(#clip0_375_40)">
<path d="M21.2798 72H16.6662L23.696 51.6364H29.2443L36.2642 72H31.6506L26.5497 56.2898H26.3906L21.2798 72ZM20.9915 63.9957H31.8892V67.3565H20.9915V63.9957ZM43.5526 72.2486C42.3925 72.2486 41.3419 71.9503 40.4006 71.3537C39.4659 70.7505 38.7235 69.8655 38.1733 68.6989C37.6297 67.5256 37.358 66.0871 37.358 64.3835C37.358 62.6335 37.6397 61.1785 38.2031 60.0185C38.7666 58.8518 39.5156 57.9801 40.4503 57.4034C41.3916 56.8201 42.4223 56.5284 43.5426 56.5284C44.3977 56.5284 45.1103 56.6742 45.6804 56.9659C46.2571 57.2509 46.7211 57.6089 47.0724 58.0398C47.4304 58.464 47.7022 58.8816 47.8878 59.2926H48.017V51.6364H52.2429V72H48.0668V69.554H47.8878C47.6889 69.9782 47.4072 70.3991 47.0426 70.8168C46.6847 71.2277 46.2173 71.5691 45.6406 71.8409C45.0705 72.1127 44.3745 72.2486 43.5526 72.2486ZM44.8949 68.8778C45.5777 68.8778 46.1544 68.6922 46.625 68.321C47.1023 67.9432 47.4669 67.4162 47.7188 66.7401C47.9773 66.0639 48.1065 65.2718 48.1065 64.3636C48.1065 63.4555 47.9806 62.6667 47.7287 61.9972C47.4768 61.3277 47.1122 60.8106 46.6349 60.446C46.1577 60.0814 45.5777 59.8991 44.8949 59.8991C44.1989 59.8991 43.6122 60.0881 43.1349 60.4659C42.6577 60.8437 42.2964 61.3674 42.0511 62.0369C41.8059 62.7064 41.6832 63.482 41.6832 64.3636C41.6832 65.2519 41.8059 66.0374 42.0511 66.7202C42.303 67.3963 42.6643 67.9266 43.1349 68.3111C43.6122 68.6889 44.1989 68.8778 44.8949 68.8778ZM61.3533 72.2486C60.1933 72.2486 59.1426 71.9503 58.2013 71.3537C57.2667 70.7505 56.5243 69.8655 55.9741 68.6989C55.4305 67.5256 55.1587 66.0871 55.1587 64.3835C55.1587 62.6335 55.4405 61.1785 56.0039 60.0185C56.5674 58.8518 57.3164 57.9801 58.2511 57.4034C59.1924 56.8201 60.2231 56.5284 61.3434 56.5284C62.1985 56.5284 62.9111 56.6742 63.4812 56.9659C64.0579 57.2509 64.5219 57.6089 64.8732 58.0398C65.2312 58.464 65.503 58.8816 65.6886 59.2926H65.8178V51.6364H70.0437V72H65.8675V69.554H65.6886C65.4897 69.9782 65.208 70.3991 64.8434 70.8168C64.4854 71.2277 64.0181 71.5691 63.4414 71.8409C62.8713 72.1127 62.1753 72.2486 61.3533 72.2486ZM62.6957 68.8778C63.3784 68.8778 63.9551 68.6922 64.4258 68.321C64.9031 67.9432 65.2676 67.4162 65.5195 66.7401C65.7781 66.0639 65.9073 65.2718 65.9073 64.3636C65.9073 63.4555 65.7814 62.6667 65.5295 61.9972C65.2776 61.3277 64.913 60.8106 64.4357 60.446C63.9585 60.0814 63.3784 59.8991 62.6957 59.8991C61.9996 59.8991 61.413 60.0881 60.9357 60.4659C60.4585 60.8437 60.0972 61.3674 59.8519 62.0369C59.6067 62.7064 59.484 63.482 59.484 64.3636C59.484 65.2519 59.6067 66.0374 59.8519 66.7202C60.1038 67.3963 60.4651 67.9266 60.9357 68.3111C61.413 68.6889 61.9996 68.8778 62.6957 68.8778ZM82.6218 77.7273C82.0849 77.7273 81.5811 77.6842 81.1104 77.598C80.6464 77.5185 80.262 77.4157 79.957 77.2898L80.9116 74.1278C81.4087 74.2803 81.8562 74.3632 82.2539 74.3764C82.6583 74.3897 83.0063 74.2969 83.2979 74.098C83.5962 73.8991 83.8382 73.5611 84.0238 73.0838L84.2724 72.4375L78.7937 56.7273H83.2482L86.4102 67.9432H86.5692L89.761 56.7273H94.2454L88.3093 73.6506C88.0243 74.4725 87.6365 75.1884 87.146 75.7983C86.6621 76.4148 86.0489 76.8887 85.3065 77.2202C84.564 77.5582 83.6692 77.7273 82.6218 77.7273ZM102.821 72.2983C101.277 72.2983 99.9412 71.9702 98.8143 71.3139C97.694 70.651 96.829 69.7296 96.2191 68.5497C95.6093 67.3632 95.3043 65.9877 95.3043 64.4233C95.3043 62.8456 95.6093 61.4669 96.2191 60.2869C96.829 59.1004 97.694 58.179 98.8143 57.5227C99.9412 56.8598 101.277 56.5284 102.821 56.5284C104.366 56.5284 105.698 56.8598 106.819 57.5227C107.945 58.179 108.814 59.1004 109.424 60.2869C110.033 61.4669 110.338 62.8456 110.338 64.4233C110.338 65.9877 110.033 67.3632 109.424 68.5497C108.814 69.7296 107.945 70.651 106.819 71.3139C105.698 71.9702 104.366 72.2983 102.821 72.2983ZM102.841 69.017C103.544 69.017 104.131 68.8182 104.601 68.4205C105.072 68.0161 105.426 67.4659 105.665 66.7699C105.91 66.0739 106.033 65.2817 106.033 64.3935C106.033 63.5052 105.91 62.7131 105.665 62.017C105.426 61.321 105.072 60.7708 104.601 60.3665C104.131 59.9621 103.544 59.7599 102.841 59.7599C102.132 59.7599 101.535 59.9621 101.051 60.3665C100.574 60.7708 100.213 61.321 99.9677 62.017C99.729 62.7131 99.6097 63.5052 99.6097 64.3935C99.6097 65.2817 99.729 66.0739 99.9677 66.7699C100.213 67.4659 100.574 68.0161 101.051 68.4205C101.535 68.8182 102.132 69.017 102.841 69.017ZM122.887 65.4972V56.7273H127.123V72H123.056V69.2259H122.897C122.552 70.1207 121.979 70.84 121.176 71.3835C120.381 71.9271 119.41 72.1989 118.263 72.1989C117.242 72.1989 116.344 71.9669 115.569 71.5028C114.793 71.0388 114.186 70.3793 113.749 69.5241C113.318 68.669 113.099 67.6449 113.093 66.4517V56.7273H117.328V65.696C117.335 66.5975 117.577 67.3101 118.054 67.8338C118.532 68.3575 119.171 68.6193 119.973 68.6193C120.484 68.6193 120.961 68.5033 121.405 68.2713C121.849 68.0327 122.207 67.6813 122.479 67.2173C122.757 66.7533 122.893 66.1799 122.887 65.4972ZM130.511 72V56.7273H134.617V59.392H134.776C135.055 58.4441 135.522 57.7282 136.178 57.2443C136.835 56.7538 137.59 56.5085 138.445 56.5085C138.657 56.5085 138.886 56.5218 139.131 56.5483C139.377 56.5748 139.592 56.6113 139.778 56.6577V60.4162C139.579 60.3565 139.304 60.3035 138.952 60.2571C138.601 60.2107 138.28 60.1875 137.988 60.1875C137.365 60.1875 136.808 60.3234 136.317 60.5952C135.834 60.8603 135.449 61.2315 135.164 61.7088C134.886 62.1861 134.746 62.7363 134.746 63.3594V72H130.511ZM148.448 72V56.7273H152.555V59.392H152.714C152.992 58.4441 153.46 57.7282 154.116 57.2443C154.772 56.7538 155.528 56.5085 156.383 56.5085C156.595 56.5085 156.824 56.5218 157.069 56.5483C157.314 56.5748 157.53 56.6113 157.715 56.6577V60.4162C157.516 60.3565 157.241 60.3035 156.89 60.2571C156.539 60.2107 156.217 60.1875 155.925 60.1875C155.302 60.1875 154.746 60.3234 154.255 60.5952C153.771 60.8603 153.387 61.2315 153.102 61.7088C152.823 62.1861 152.684 62.7363 152.684 63.3594V72H148.448ZM159.905 72V56.7273H164.141V72H159.905ZM162.033 54.7585C161.403 54.7585 160.863 54.5497 160.412 54.1321C159.968 53.7079 159.746 53.2008 159.746 52.6108C159.746 52.0275 159.968 51.527 160.412 51.1094C160.863 50.6851 161.403 50.473 162.033 50.473C162.663 50.473 163.2 50.6851 163.644 51.1094C164.095 51.527 164.32 52.0275 164.32 52.6108C164.32 53.2008 164.095 53.7079 163.644 54.1321C163.2 54.5497 162.663 54.7585 162.033 54.7585ZM173.162 72.2486C172.002 72.2486 170.951 71.9503 170.01 71.3537C169.075 70.7505 168.333 69.8655 167.783 68.6989C167.239 67.5256 166.967 66.0871 166.967 64.3835C166.967 62.6335 167.249 61.1785 167.812 60.0185C168.376 58.8518 169.125 57.9801 170.06 57.4034C171.001 56.8201 172.032 56.5284 173.152 56.5284C174.007 56.5284 174.72 56.6742 175.29 56.9659C175.866 57.2509 176.33 57.6089 176.682 58.0398C177.04 58.464 177.312 58.8816 177.497 59.2926H177.626V51.6364H181.852V72H177.676V69.554H177.497C177.298 69.9782 177.017 70.3991 176.652 70.8168C176.294 71.2277 175.827 71.5691 175.25 71.8409C174.68 72.1127 173.984 72.2486 173.162 72.2486ZM174.504 68.8778C175.187 68.8778 175.764 68.6922 176.234 68.321C176.712 67.9432 177.076 67.4162 177.328 66.7401C177.587 66.0639 177.716 65.2718 177.716 64.3636C177.716 63.4555 177.59 62.6667 177.338 61.9972C177.086 61.3277 176.722 60.8106 176.244 60.446C175.767 60.0814 175.187 59.8991 174.504 59.8991C173.808 59.8991 173.222 60.0881 172.744 60.4659C172.267 60.8437 171.906 61.3674 171.661 62.0369C171.415 62.7064 171.293 63.482 171.293 64.3636C171.293 65.2519 171.415 66.0374 171.661 66.7202C171.912 67.3963 172.274 67.9266 172.744 68.3111C173.222 68.6889 173.808 68.8778 174.504 68.8778ZM192.295 72.2983C190.724 72.2983 189.372 71.9801 188.238 71.3438C187.111 70.7008 186.243 69.7926 185.633 68.6193C185.023 67.4394 184.718 66.044 184.718 64.4332C184.718 62.8622 185.023 61.4834 185.633 60.2969C186.243 59.1103 187.101 58.1856 188.208 57.5227C189.322 56.8598 190.628 56.5284 192.126 56.5284C193.134 56.5284 194.072 56.6908 194.94 57.0156C195.815 57.3338 196.577 57.8144 197.227 58.4574C197.883 59.1004 198.394 59.9091 198.758 60.8835C199.123 61.8513 199.305 62.9848 199.305 64.2841V65.4474H186.409V62.8224H195.318C195.318 62.2126 195.185 61.6723 194.92 61.2017C194.655 60.7311 194.287 60.3632 193.816 60.098C193.352 59.8262 192.812 59.6903 192.196 59.6903C191.553 59.6903 190.983 59.8395 190.485 60.1378C189.995 60.4295 189.61 60.8239 189.332 61.321C189.054 61.8116 188.911 62.3584 188.904 62.9616V65.4574C188.904 66.2131 189.044 66.866 189.322 67.4162C189.607 67.9664 190.008 68.3906 190.525 68.6889C191.042 68.9872 191.655 69.1364 192.365 69.1364C192.835 69.1364 193.266 69.0701 193.657 68.9375C194.048 68.8049 194.383 68.6061 194.662 68.3409C194.94 68.0758 195.152 67.7509 195.298 67.3665L199.216 67.625C199.017 68.5663 198.609 69.3883 197.993 70.0909C197.383 70.7869 196.594 71.3305 195.626 71.7216C194.665 72.1061 193.555 72.2983 192.295 72.2983ZM202.069 72V56.7273H206.176V59.392H206.335C206.613 58.4441 207.081 57.7282 207.737 57.2443C208.393 56.7538 209.149 56.5085 210.004 56.5085C210.216 56.5085 210.445 56.5218 210.69 56.5483C210.935 56.5748 211.151 56.6113 211.336 56.6577V60.4162C211.137 60.3565 210.862 60.3035 210.511 60.2571C210.16 60.2107 209.838 60.1875 209.547 60.1875C208.923 60.1875 208.367 60.3234 207.876 60.5952C207.392 60.8603 207.008 61.2315 206.723 61.7088C206.444 62.1861 206.305 62.7363 206.305 63.3594V72H202.069ZM217.541 51.6364V53.7841C217.541 54.3939 217.422 55.017 217.183 55.6534C216.951 56.2831 216.639 56.8797 216.248 57.4432C215.857 58 215.43 58.474 214.966 58.8651L213.096 57.7614C213.428 57.2377 213.719 56.6577 213.971 56.0213C214.23 55.3849 214.359 54.6458 214.359 53.804V51.6364H217.541ZM231.156 61.0824L227.278 61.321C227.211 60.9896 227.069 60.6913 226.85 60.4261C226.631 60.1544 226.343 59.9389 225.985 59.7798C225.634 59.6141 225.213 59.5312 224.722 59.5312C224.066 59.5312 223.513 59.6705 223.062 59.9489C222.611 60.2206 222.386 60.5852 222.386 61.0426C222.386 61.4072 222.531 61.7154 222.823 61.9673C223.115 62.2192 223.615 62.4214 224.325 62.5739L227.089 63.1307C228.574 63.4356 229.681 63.9261 230.41 64.6023C231.139 65.2784 231.504 66.1667 231.504 67.267C231.504 68.268 231.209 69.1463 230.619 69.902C230.035 70.6577 229.233 71.2476 228.212 71.6719C227.198 72.0895 226.028 72.2983 224.702 72.2983C222.681 72.2983 221.07 71.8774 219.87 71.0355C218.677 70.187 217.978 69.0336 217.772 67.5753L221.938 67.3565C222.064 67.973 222.369 68.4437 222.853 68.7685C223.337 69.0866 223.957 69.2457 224.712 69.2457C225.455 69.2457 226.051 69.1032 226.502 68.8182C226.96 68.5265 227.192 68.152 227.198 67.6946C227.192 67.3101 227.029 66.9953 226.711 66.75C226.393 66.4981 225.902 66.3059 225.239 66.1733L222.594 65.6463C221.103 65.348 219.993 64.831 219.263 64.0952C218.541 63.3594 218.18 62.4214 218.18 61.2812C218.18 60.3002 218.445 59.455 218.975 58.7457C219.512 58.0365 220.264 57.4896 221.232 57.1051C222.207 56.7206 223.347 56.5284 224.653 56.5284C226.582 56.5284 228.1 56.9361 229.207 57.7514C230.32 58.5668 230.97 59.6771 231.156 61.0824ZM246.279 72.2486C245.119 72.2486 244.068 71.9503 243.127 71.3537C242.192 70.7505 241.45 69.8655 240.9 68.6989C240.356 67.5256 240.085 66.0871 240.085 64.3835C240.085 62.6335 240.366 61.1785 240.93 60.0185C241.493 58.8518 242.242 57.9801 243.177 57.4034C244.118 56.8201 245.149 56.5284 246.269 56.5284C247.124 56.5284 247.837 56.6742 248.407 56.9659C248.984 57.2509 249.448 57.6089 249.799 58.0398C250.157 58.464 250.429 58.8816 250.614 59.2926H250.744V51.6364H254.969V72H250.793V69.554H250.614C250.415 69.9782 250.134 70.3991 249.769 70.8168C249.411 71.2277 248.944 71.5691 248.367 71.8409C247.797 72.1127 247.101 72.2486 246.279 72.2486ZM247.621 68.8778C248.304 68.8778 248.881 68.6922 249.352 68.321C249.829 67.9432 250.193 67.4162 250.445 66.7401C250.704 66.0639 250.833 65.2718 250.833 64.3636C250.833 63.4555 250.707 62.6667 250.455 61.9972C250.203 61.3277 249.839 60.8106 249.362 60.446C248.884 60.0814 248.304 59.8991 247.621 59.8991C246.925 59.8991 246.339 60.0881 245.862 60.4659C245.384 60.8437 245.023 61.3674 244.778 62.0369C244.532 62.7064 244.41 63.482 244.41 64.3636C244.41 65.2519 244.532 66.0374 244.778 66.7202C245.03 67.3963 245.391 67.9266 245.862 68.3111C246.339 68.6889 246.925 68.8778 247.621 68.8778ZM265.412 72.2983C263.841 72.2983 262.489 71.9801 261.355 71.3438C260.229 70.7008 259.36 69.7926 258.75 68.6193C258.141 67.4394 257.836 66.044 257.836 64.4332C257.836 62.8622 258.141 61.4834 258.75 60.2969C259.36 59.1103 260.219 58.1856 261.326 57.5227C262.439 56.8598 263.745 56.5284 265.243 56.5284C266.251 56.5284 267.189 56.6908 268.057 57.0156C268.932 57.3338 269.694 57.8144 270.344 58.4574C271 59.1004 271.511 59.9091 271.875 60.8835C272.24 61.8513 272.422 62.9848 272.422 64.2841V65.4474H259.526V62.8224H268.435C268.435 62.2126 268.302 61.6723 268.037 61.2017C267.772 60.7311 267.404 60.3632 266.934 60.098C266.47 59.8262 265.929 59.6903 265.313 59.6903C264.67 59.6903 264.1 59.8395 263.603 60.1378C263.112 60.4295 262.728 60.8239 262.449 61.321C262.171 61.8116 262.028 62.3584 262.022 62.9616V65.4574C262.022 66.2131 262.161 66.866 262.439 67.4162C262.724 67.9664 263.125 68.3906 263.642 68.6889C264.159 68.9872 264.773 69.1364 265.482 69.1364C265.953 69.1364 266.383 69.0701 266.775 68.9375C267.166 68.8049 267.5 68.6061 267.779 68.3409C268.057 68.0758 268.269 67.7509 268.415 67.3665L272.333 67.625C272.134 68.5663 271.726 69.3883 271.11 70.0909C270.5 70.7869 269.711 71.3305 268.743 71.7216C267.782 72.1061 266.672 72.2983 265.412 72.2983ZM283.31 56.7273V59.9091H274.113V56.7273H283.31ZM276.201 53.0682H280.436V67.3068C280.436 67.6979 280.496 68.0028 280.615 68.2216C280.735 68.4337 280.9 68.5829 281.113 68.669C281.331 68.7552 281.583 68.7983 281.868 68.7983C282.067 68.7983 282.266 68.7817 282.465 68.7486C282.664 68.7088 282.816 68.679 282.922 68.6591L283.588 71.8111C283.376 71.8774 283.078 71.9536 282.694 72.0398C282.309 72.1326 281.842 72.1889 281.292 72.2088C280.271 72.2486 279.376 72.1127 278.607 71.8011C277.845 71.4896 277.251 71.0057 276.827 70.3494C276.403 69.6932 276.194 68.8646 276.201 67.8636V53.0682ZM290.424 72.2884C289.45 72.2884 288.582 72.1193 287.819 71.7812C287.057 71.4366 286.454 70.9295 286.01 70.2599C285.572 69.5838 285.353 68.742 285.353 67.7344C285.353 66.8859 285.509 66.1733 285.821 65.5966C286.132 65.0199 286.556 64.5559 287.093 64.2045C287.63 63.8532 288.24 63.5881 288.923 63.4091C289.612 63.2301 290.335 63.1042 291.091 63.0312C291.979 62.9384 292.695 62.8523 293.238 62.7727C293.782 62.6866 294.176 62.5606 294.422 62.3949C294.667 62.2292 294.789 61.9839 294.789 61.6591V61.5994C294.789 60.9697 294.591 60.4825 294.193 60.1378C293.802 59.7931 293.245 59.6207 292.522 59.6207C291.76 59.6207 291.154 59.7898 290.703 60.1278C290.252 60.4593 289.954 60.8769 289.808 61.3807L285.89 61.0625C286.089 60.1345 286.48 59.3324 287.064 58.6562C287.647 57.9735 288.399 57.4498 289.321 57.0852C290.249 56.714 291.323 56.5284 292.542 56.5284C293.391 56.5284 294.203 56.6278 294.978 56.8267C295.761 57.0256 296.453 57.3338 297.056 57.7514C297.666 58.169 298.147 58.706 298.498 59.3622C298.85 60.0118 299.025 60.7907 299.025 61.6989V72H295.008V69.8821H294.889C294.644 70.3594 294.315 70.7803 293.904 71.1449C293.493 71.5028 293 71.7846 292.423 71.9901C291.846 72.1889 291.18 72.2884 290.424 72.2884ZM291.637 69.3651C292.261 69.3651 292.811 69.2424 293.288 68.9972C293.765 68.7453 294.14 68.4072 294.412 67.983C294.683 67.5587 294.819 67.0781 294.819 66.5412V64.9205C294.687 65.0066 294.504 65.0862 294.272 65.1591C294.047 65.2254 293.792 65.2884 293.507 65.348C293.222 65.401 292.937 65.4508 292.652 65.4972C292.367 65.5369 292.108 65.5734 291.876 65.6065C291.379 65.6795 290.945 65.7955 290.574 65.9545C290.202 66.1136 289.914 66.3291 289.708 66.6009C289.503 66.866 289.4 67.1974 289.4 67.5952C289.4 68.1719 289.609 68.6127 290.027 68.9176C290.451 69.2159 290.988 69.3651 291.637 69.3651ZM302.311 72V56.7273H306.547V72H302.311ZM304.439 54.7585C303.81 54.7585 303.269 54.5497 302.819 54.1321C302.374 53.7079 302.152 53.2008 302.152 52.6108C302.152 52.0275 302.374 51.527 302.819 51.1094C303.269 50.6851 303.81 50.473 304.439 50.473C305.069 50.473 305.606 50.6851 306.05 51.1094C306.501 51.527 306.726 52.0275 306.726 52.6108C306.726 53.2008 306.501 53.7079 306.05 54.1321C305.606 54.5497 305.069 54.7585 304.439 54.7585ZM314.176 51.6364V72H309.94V51.6364H314.176ZM330.277 61.0824L326.399 61.321C326.333 60.9896 326.19 60.6913 325.971 60.4261C325.752 60.1544 325.464 59.9389 325.106 59.7798C324.755 59.6141 324.334 59.5312 323.843 59.5312C323.187 59.5312 322.634 59.6705 322.183 59.9489C321.732 60.2206 321.507 60.5852 321.507 61.0426C321.507 61.4072 321.653 61.7154 321.944 61.9673C322.236 62.2192 322.736 62.4214 323.446 62.5739L326.21 63.1307C327.695 63.4356 328.802 63.9261 329.531 64.6023C330.26 65.2784 330.625 66.1667 330.625 67.267C330.625 68.268 330.33 69.1463 329.74 69.902C329.156 70.6577 328.354 71.2476 327.333 71.6719C326.319 72.0895 325.149 72.2983 323.824 72.2983C321.802 72.2983 320.191 71.8774 318.991 71.0355C317.798 70.187 317.099 69.0336 316.893 67.5753L321.059 67.3565C321.185 67.973 321.49 68.4437 321.974 68.7685C322.458 69.0866 323.078 69.2457 323.833 69.2457C324.576 69.2457 325.172 69.1032 325.623 68.8182C326.081 68.5265 326.313 68.152 326.319 67.6946C326.313 67.3101 326.15 66.9953 325.832 66.75C325.514 66.4981 325.023 66.3059 324.36 66.1733L321.716 65.6463C320.224 65.348 319.114 64.831 318.385 64.0952C317.662 63.3594 317.301 62.4214 317.301 61.2812C317.301 60.3002 317.566 59.455 318.096 58.7457C318.633 58.0365 319.386 57.4896 320.353 57.1051C321.328 56.7206 322.468 56.5284 323.774 56.5284C325.703 56.5284 327.221 56.9361 328.328 57.7514C329.441 58.5668 330.091 59.6771 330.277 61.0824ZM336.931 65.8949V65.5568C336.938 64.3968 337.04 63.4721 337.239 62.7827C337.445 62.0933 337.743 61.5365 338.134 61.1122C338.525 60.688 338.996 60.3035 339.546 59.9588C339.957 59.6937 340.325 59.4186 340.65 59.1335C340.975 58.8485 341.233 58.5336 341.425 58.1889C341.618 57.8376 341.714 57.4465 341.714 57.0156C341.714 56.5582 341.604 56.1572 341.386 55.8125C341.167 55.4678 340.872 55.2027 340.501 55.017C340.136 54.8314 339.732 54.7386 339.288 54.7386C338.857 54.7386 338.449 54.8348 338.065 55.027C337.68 55.2126 337.365 55.491 337.12 55.8622C336.875 56.2268 336.742 56.6809 336.722 57.2244H332.665C332.699 55.8987 333.017 54.8049 333.62 53.9432C334.223 53.0748 335.022 52.4285 336.016 52.0043C337.011 51.5734 338.108 51.358 339.308 51.358C340.627 51.358 341.793 51.5767 342.808 52.0142C343.822 52.4451 344.617 53.0715 345.194 53.8935C345.771 54.7154 346.059 55.7064 346.059 56.8665C346.059 57.642 345.93 58.3314 345.671 58.9347C345.419 59.5312 345.065 60.0616 344.607 60.5256C344.15 60.983 343.61 61.3973 342.987 61.7685C342.463 62.08 342.032 62.4048 341.694 62.7429C341.362 63.081 341.114 63.4721 340.948 63.9162C340.789 64.3603 340.706 64.9072 340.7 65.5568V65.8949H336.931ZM338.9 72.2585C338.237 72.2585 337.67 72.0265 337.2 71.5625C336.736 71.0919 336.507 70.5284 336.513 69.8722C336.507 69.2225 336.736 68.6657 337.2 68.2017C337.67 67.7377 338.237 67.5057 338.9 67.5057C339.53 67.5057 340.083 67.7377 340.56 68.2017C341.038 68.6657 341.28 69.2225 341.286 69.8722C341.28 70.3097 341.164 70.7107 340.938 71.0753C340.719 71.4332 340.431 71.7216 340.073 71.9403C339.715 72.1525 339.324 72.2585 338.9 72.2585Z" fill="white"/>
<path d="M16.4091 94.3636H18.0227L21.25 99.7955H21.3864L24.6136 94.3636H26.2273L22.0227 101.205V106H20.6136V101.205L16.4091 94.3636ZM30.179 106.182C29.3911 106.182 28.6998 105.994 28.1051 105.619C27.5142 105.244 27.0521 104.72 26.7188 104.045C26.3892 103.371 26.2244 102.583 26.2244 101.682C26.2244 100.773 26.3892 99.9792 26.7188 99.3011C27.0521 98.6231 27.5142 98.0966 28.1051 97.7216C28.6998 97.3466 29.3911 97.1591 30.179 97.1591C30.9669 97.1591 31.6563 97.3466 32.2472 97.7216C32.8419 98.0966 33.304 98.6231 33.6335 99.3011C33.9669 99.9792 34.1335 100.773 34.1335 101.682C34.1335 102.583 33.9669 103.371 33.6335 104.045C33.304 104.72 32.8419 105.244 32.2472 105.619C31.6563 105.994 30.9669 106.182 30.179 106.182ZM30.179 104.977C30.7775 104.977 31.2699 104.824 31.6562 104.517C32.0426 104.21 32.3286 103.807 32.5142 103.307C32.6998 102.807 32.7926 102.265 32.7926 101.682C32.7926 101.098 32.6998 100.555 32.5142 100.051C32.3286 99.5473 32.0426 99.1402 31.6562 98.8295C31.2699 98.5189 30.7775 98.3636 30.179 98.3636C29.5805 98.3636 29.0881 98.5189 28.7017 98.8295C28.3153 99.1402 28.0294 99.5473 27.8438 100.051C27.6581 100.555 27.5653 101.098 27.5653 101.682C27.5653 102.265 27.6581 102.807 27.8438 103.307C28.0294 103.807 28.3153 104.21 28.7017 104.517C29.0881 104.824 29.5805 104.977 30.179 104.977ZM41.6804 102.432V97.2727H43.0213V106H41.6804V104.523H41.5895C41.3849 104.966 41.0668 105.343 40.6349 105.653C40.2031 105.96 39.6577 106.114 38.9986 106.114C38.4531 106.114 37.9683 105.994 37.544 105.756C37.1198 105.513 36.7865 105.15 36.544 104.665C36.3016 104.176 36.1804 103.561 36.1804 102.818V97.2727H37.5213V102.727C37.5213 103.364 37.6993 103.871 38.0554 104.25C38.4152 104.629 38.8736 104.818 39.4304 104.818C39.7637 104.818 40.1027 104.733 40.4474 104.562C40.7959 104.392 41.0876 104.131 41.3224 103.778C41.5611 103.426 41.6804 102.977 41.6804 102.432ZM46.8935 94.3636V95.3864C46.8935 95.697 46.8366 96.0284 46.723 96.3807C46.6132 96.7292 46.4503 97.0682 46.2344 97.3977C46.0223 97.7235 45.7647 98.0076 45.4616 98.25L44.7344 97.6591C44.973 97.3182 45.1795 96.964 45.3537 96.5966C45.5317 96.2254 45.6207 95.8295 45.6207 95.4091V94.3636H46.8935ZM56.0355 97.2727L52.8082 106H51.4446L48.2173 97.2727H49.6719L52.081 104.227H52.1719L54.581 97.2727H56.0355ZM61.152 106.182C60.3111 106.182 59.5857 105.996 58.9759 105.625C58.3698 105.25 57.902 104.727 57.5724 104.057C57.2467 103.383 57.0838 102.598 57.0838 101.705C57.0838 100.811 57.2467 100.023 57.5724 99.3409C57.902 98.6553 58.3603 98.1212 58.9474 97.7386C59.5384 97.3523 60.2277 97.1591 61.0156 97.1591C61.4702 97.1591 61.919 97.2348 62.3622 97.3864C62.8054 97.5379 63.2088 97.7841 63.5724 98.125C63.9361 98.4621 64.2259 98.9091 64.4418 99.4659C64.6577 100.023 64.7656 100.708 64.7656 101.523V102.091H58.0384V100.932H63.402C63.402 100.439 63.3035 100 63.1065 99.6136C62.9134 99.2273 62.6368 98.9223 62.277 98.6989C61.9209 98.4754 61.5005 98.3636 61.0156 98.3636C60.4815 98.3636 60.0194 98.4962 59.6293 98.7614C59.2429 99.0227 58.9455 99.3636 58.7372 99.7841C58.5289 100.205 58.4247 100.655 58.4247 101.136V101.909C58.4247 102.568 58.5384 103.127 58.7656 103.585C58.9967 104.04 59.3168 104.386 59.7259 104.625C60.1349 104.86 60.6103 104.977 61.152 104.977C61.5043 104.977 61.8224 104.928 62.1065 104.83C62.3944 104.727 62.6425 104.576 62.8509 104.375C63.0592 104.17 63.2202 103.917 63.3338 103.614L64.6293 103.977C64.4929 104.417 64.2637 104.803 63.9418 105.136C63.6198 105.466 63.2221 105.723 62.7486 105.909C62.2751 106.091 61.7429 106.182 61.152 106.182ZM73.8736 106.205C73.3205 106.205 72.8187 106.1 72.3679 105.892C71.9171 105.68 71.5592 105.375 71.294 104.977C71.0289 104.576 70.8963 104.091 70.8963 103.523C70.8963 103.023 70.9948 102.617 71.1918 102.307C71.3887 101.992 71.652 101.746 71.9815 101.568C72.3111 101.39 72.6747 101.258 73.0724 101.17C73.474 101.08 73.8774 101.008 74.2827 100.955C74.813 100.886 75.2429 100.835 75.5724 100.801C75.9058 100.763 76.1482 100.701 76.2997 100.614C76.455 100.527 76.5327 100.375 76.5327 100.159V100.114C76.5327 99.553 76.3793 99.1174 76.0724 98.8068C75.7694 98.4962 75.3092 98.3409 74.6918 98.3409C74.0516 98.3409 73.5497 98.4811 73.1861 98.7614C72.8224 99.0417 72.5668 99.3409 72.419 99.6591L71.1463 99.2045C71.3736 98.6742 71.6766 98.2614 72.0554 97.9659C72.438 97.6667 72.8546 97.4583 73.3054 97.3409C73.7599 97.2197 74.2069 97.1591 74.6463 97.1591C74.9266 97.1591 75.2486 97.1932 75.6122 97.2614C75.9796 97.3258 76.3338 97.4602 76.6747 97.6648C77.0194 97.8693 77.3054 98.178 77.5327 98.5909C77.7599 99.0038 77.8736 99.5568 77.8736 100.25V106H76.5327V104.818H76.4645C76.3736 105.008 76.2221 105.21 76.0099 105.426C75.7978 105.642 75.5156 105.826 75.1634 105.977C74.8111 106.129 74.3812 106.205 73.8736 106.205ZM74.0781 105C74.6084 105 75.0554 104.896 75.419 104.688C75.7865 104.479 76.063 104.21 76.2486 103.881C76.438 103.551 76.5327 103.205 76.5327 102.841V101.614C76.4759 101.682 76.3509 101.744 76.1577 101.801C75.9683 101.854 75.7486 101.902 75.4986 101.943C75.2524 101.981 75.0118 102.015 74.777 102.045C74.5459 102.072 74.3584 102.095 74.2145 102.114C73.866 102.159 73.5402 102.233 73.2372 102.335C72.938 102.434 72.6955 102.583 72.5099 102.784C72.3281 102.981 72.2372 103.25 72.2372 103.591C72.2372 104.057 72.4096 104.409 72.7543 104.648C73.1027 104.883 73.544 105 74.0781 105ZM81.6619 94.3636V106H80.321V94.3636H81.6619ZM84.1179 106V97.2727H85.4134V98.5909H85.5043C85.6634 98.1591 85.9512 97.8087 86.3679 97.5398C86.7846 97.2708 87.2543 97.1364 87.777 97.1364C87.8755 97.1364 87.9986 97.1383 88.1463 97.142C88.294 97.1458 88.4058 97.1515 88.4815 97.1591V98.5227C88.4361 98.5114 88.3319 98.4943 88.169 98.4716C88.0099 98.4451 87.8414 98.4318 87.6634 98.4318C87.2391 98.4318 86.8603 98.5208 86.527 98.6989C86.1974 98.8731 85.9361 99.1155 85.7429 99.4261C85.5535 99.733 85.4588 100.083 85.4588 100.477V106H84.1179ZM93.4645 106.182C92.6236 106.182 91.8982 105.996 91.2884 105.625C90.6823 105.25 90.2145 104.727 89.8849 104.057C89.5592 103.383 89.3963 102.598 89.3963 101.705C89.3963 100.811 89.5592 100.023 89.8849 99.3409C90.2145 98.6553 90.6728 98.1212 91.2599 97.7386C91.8509 97.3523 92.5402 97.1591 93.3281 97.1591C93.7827 97.1591 94.2315 97.2348 94.6747 97.3864C95.1179 97.5379 95.5213 97.7841 95.8849 98.125C96.2486 98.4621 96.5384 98.9091 96.7543 99.4659C96.9702 100.023 97.0781 100.708 97.0781 101.523V102.091H90.3509V100.932H95.7145C95.7145 100.439 95.616 100 95.419 99.6136C95.2259 99.2273 94.9493 98.9223 94.5895 98.6989C94.2334 98.4754 93.813 98.3636 93.3281 98.3636C92.794 98.3636 92.3319 98.4962 91.9418 98.7614C91.5554 99.0227 91.258 99.3636 91.0497 99.7841C90.8414 100.205 90.7372 100.655 90.7372 101.136V101.909C90.7372 102.568 90.8509 103.127 91.0781 103.585C91.3092 104.04 91.6293 104.386 92.0384 104.625C92.4474 104.86 92.9228 104.977 93.4645 104.977C93.8168 104.977 94.1349 104.928 94.419 104.83C94.7069 104.727 94.955 104.576 95.1634 104.375C95.3717 104.17 95.5327 103.917 95.6463 103.614L96.9418 103.977C96.8054 104.417 96.5762 104.803 96.2543 105.136C95.9323 105.466 95.5346 105.723 95.0611 105.909C94.5876 106.091 94.0554 106.182 93.4645 106.182ZM101.686 106.205C101.133 106.205 100.631 106.1 100.18 105.892C99.7296 105.68 99.3717 105.375 99.1065 104.977C98.8414 104.576 98.7088 104.091 98.7088 103.523C98.7088 103.023 98.8073 102.617 99.0043 102.307C99.2012 101.992 99.4645 101.746 99.794 101.568C100.124 101.39 100.487 101.258 100.885 101.17C101.286 101.08 101.69 101.008 102.095 100.955C102.625 100.886 103.055 100.835 103.385 100.801C103.718 100.763 103.961 100.701 104.112 100.614C104.268 100.527 104.345 100.375 104.345 100.159V100.114C104.345 99.553 104.192 99.1174 103.885 98.8068C103.582 98.4962 103.122 98.3409 102.504 98.3409C101.864 98.3409 101.362 98.4811 100.999 98.7614C100.635 99.0417 100.379 99.3409 100.232 99.6591L98.9588 99.2045C99.1861 98.6742 99.4891 98.2614 99.8679 97.9659C100.25 97.6667 100.667 97.4583 101.118 97.3409C101.572 97.2197 102.019 97.1591 102.459 97.1591C102.739 97.1591 103.061 97.1932 103.425 97.2614C103.792 97.3258 104.146 97.4602 104.487 97.6648C104.832 97.8693 105.118 98.178 105.345 98.5909C105.572 99.0038 105.686 99.5568 105.686 100.25V106H104.345V104.818H104.277C104.186 105.008 104.035 105.21 103.822 105.426C103.61 105.642 103.328 105.826 102.976 105.977C102.624 106.129 102.194 106.205 101.686 106.205ZM101.891 105C102.421 105 102.868 104.896 103.232 104.688C103.599 104.479 103.875 104.21 104.061 103.881C104.25 103.551 104.345 103.205 104.345 102.841V101.614C104.288 101.682 104.163 101.744 103.97 101.801C103.781 101.854 103.561 101.902 103.311 101.943C103.065 101.981 102.824 102.015 102.589 102.045C102.358 102.072 102.171 102.095 102.027 102.114C101.679 102.159 101.353 102.233 101.05 102.335C100.75 102.434 100.508 102.583 100.322 102.784C100.141 102.981 100.05 103.25 100.05 103.591C100.05 104.057 100.222 104.409 100.567 104.648C100.915 104.883 101.357 105 101.891 105ZM111.429 106.182C110.702 106.182 110.06 105.998 109.503 105.631C108.946 105.259 108.51 104.737 108.196 104.062C107.882 103.384 107.724 102.583 107.724 101.659C107.724 100.742 107.882 99.947 108.196 99.2727C108.51 98.5985 108.948 98.0777 109.509 97.7102C110.069 97.3428 110.717 97.1591 111.452 97.1591C112.02 97.1591 112.469 97.2538 112.798 97.4432C113.132 97.6288 113.385 97.8409 113.56 98.0795C113.738 98.3144 113.876 98.5076 113.974 98.6591H114.088V94.3636H115.429V106H114.134V104.659H113.974C113.876 104.818 113.736 105.019 113.554 105.261C113.372 105.5 113.113 105.714 112.776 105.903C112.438 106.089 111.99 106.182 111.429 106.182ZM111.611 104.977C112.149 104.977 112.603 104.837 112.974 104.557C113.346 104.273 113.628 103.881 113.821 103.381C114.014 102.877 114.111 102.295 114.111 101.636C114.111 100.985 114.016 100.415 113.827 99.9261C113.637 99.4337 113.357 99.0511 112.986 98.7784C112.615 98.5019 112.156 98.3636 111.611 98.3636C111.043 98.3636 110.569 98.5095 110.19 98.8011C109.815 99.089 109.533 99.4811 109.344 99.9773C109.158 100.47 109.065 101.023 109.065 101.636C109.065 102.258 109.16 102.822 109.349 103.33C109.543 103.833 109.827 104.235 110.202 104.534C110.58 104.83 111.05 104.977 111.611 104.977ZM118.935 109.273C118.707 109.273 118.505 109.254 118.327 109.216C118.149 109.182 118.026 109.148 117.957 109.114L118.298 107.932C118.624 108.015 118.912 108.045 119.162 108.023C119.412 108 119.634 107.888 119.827 107.688C120.024 107.491 120.204 107.17 120.366 106.727L120.616 106.045L117.389 97.2727H118.844L121.253 104.227H121.344L123.753 97.2727H125.207L121.503 107.273C121.336 107.723 121.13 108.097 120.884 108.392C120.637 108.691 120.351 108.913 120.026 109.057C119.704 109.201 119.34 109.273 118.935 109.273ZM131.477 109.273V97.2727H132.773V98.6591H132.932C133.03 98.5076 133.167 98.3144 133.341 98.0795C133.519 97.8409 133.773 97.6288 134.102 97.4432C134.436 97.2538 134.886 97.1591 135.455 97.1591C136.189 97.1591 136.837 97.3428 137.398 97.7102C137.958 98.0777 138.396 98.5985 138.71 99.2727C139.025 99.947 139.182 100.742 139.182 101.659C139.182 102.583 139.025 103.384 138.71 104.062C138.396 104.737 137.96 105.259 137.403 105.631C136.847 105.998 136.205 106.182 135.477 106.182C134.917 106.182 134.468 106.089 134.131 105.903C133.794 105.714 133.534 105.5 133.352 105.261C133.17 105.019 133.03 104.818 132.932 104.659H132.818V109.273H131.477ZM132.795 101.636C132.795 102.295 132.892 102.877 133.085 103.381C133.278 103.881 133.561 104.273 133.932 104.557C134.303 104.837 134.758 104.977 135.295 104.977C135.856 104.977 136.324 104.83 136.699 104.534C137.078 104.235 137.362 103.833 137.551 103.33C137.744 102.822 137.841 102.258 137.841 101.636C137.841 101.023 137.746 100.47 137.557 99.9773C137.371 99.4811 137.089 99.089 136.71 98.8011C136.335 98.5095 135.864 98.3636 135.295 98.3636C134.75 98.3636 134.292 98.5019 133.92 98.7784C133.549 99.0511 133.269 99.4337 133.08 99.9261C132.89 100.415 132.795 100.985 132.795 101.636ZM143.795 106.205C143.242 106.205 142.741 106.1 142.29 105.892C141.839 105.68 141.481 105.375 141.216 104.977C140.951 104.576 140.818 104.091 140.818 103.523C140.818 103.023 140.917 102.617 141.114 102.307C141.311 101.992 141.574 101.746 141.903 101.568C142.233 101.39 142.597 101.258 142.994 101.17C143.396 101.08 143.799 101.008 144.205 100.955C144.735 100.886 145.165 100.835 145.494 100.801C145.828 100.763 146.07 100.701 146.222 100.614C146.377 100.527 146.455 100.375 146.455 100.159V100.114C146.455 99.553 146.301 99.1174 145.994 98.8068C145.691 98.4962 145.231 98.3409 144.614 98.3409C143.973 98.3409 143.472 98.4811 143.108 98.7614C142.744 99.0417 142.489 99.3409 142.341 99.6591L141.068 99.2045C141.295 98.6742 141.598 98.2614 141.977 97.9659C142.36 97.6667 142.777 97.4583 143.227 97.3409C143.682 97.2197 144.129 97.1591 144.568 97.1591C144.848 97.1591 145.17 97.1932 145.534 97.2614C145.902 97.3258 146.256 97.4602 146.597 97.6648C146.941 97.8693 147.227 98.178 147.455 98.5909C147.682 99.0038 147.795 99.5568 147.795 100.25V106H146.455V104.818H146.386C146.295 105.008 146.144 105.21 145.932 105.426C145.72 105.642 145.438 105.826 145.085 105.977C144.733 106.129 144.303 106.205 143.795 106.205ZM144 105C144.53 105 144.977 104.896 145.341 104.688C145.708 104.479 145.985 104.21 146.17 103.881C146.36 103.551 146.455 103.205 146.455 102.841V101.614C146.398 101.682 146.273 101.744 146.08 101.801C145.89 101.854 145.67 101.902 145.42 101.943C145.174 101.981 144.934 102.015 144.699 102.045C144.468 102.072 144.28 102.095 144.136 102.114C143.788 102.159 143.462 102.233 143.159 102.335C142.86 102.434 142.617 102.583 142.432 102.784C142.25 102.981 142.159 103.25 142.159 103.591C142.159 104.057 142.331 104.409 142.676 104.648C143.025 104.883 143.466 105 144 105ZM150.243 106V97.2727H151.584V106H150.243ZM150.925 95.8182C150.663 95.8182 150.438 95.7292 150.249 95.5511C150.063 95.3731 149.97 95.1591 149.97 94.9091C149.97 94.6591 150.063 94.4451 150.249 94.267C150.438 94.089 150.663 94 150.925 94C151.186 94 151.41 94.089 151.595 94.267C151.785 94.4451 151.879 94.6591 151.879 94.9091C151.879 95.1591 151.785 95.3731 151.595 95.5511C151.41 95.7292 151.186 95.8182 150.925 95.8182ZM157.335 106.182C156.608 106.182 155.966 105.998 155.409 105.631C154.852 105.259 154.417 104.737 154.102 104.062C153.788 103.384 153.631 102.583 153.631 101.659C153.631 100.742 153.788 99.947 154.102 99.2727C154.417 98.5985 154.854 98.0777 155.415 97.7102C155.975 97.3428 156.623 97.1591 157.358 97.1591C157.926 97.1591 158.375 97.2538 158.705 97.4432C159.038 97.6288 159.292 97.8409 159.466 98.0795C159.644 98.3144 159.782 98.5076 159.881 98.6591H159.994V94.3636H161.335V106H160.04V104.659H159.881C159.782 104.818 159.642 105.019 159.46 105.261C159.278 105.5 159.019 105.714 158.682 105.903C158.345 106.089 157.896 106.182 157.335 106.182ZM157.517 104.977C158.055 104.977 158.509 104.837 158.881 104.557C159.252 104.273 159.534 103.881 159.727 103.381C159.92 102.877 160.017 102.295 160.017 101.636C160.017 100.985 159.922 100.415 159.733 99.9261C159.544 99.4337 159.263 99.0511 158.892 98.7784C158.521 98.5019 158.063 98.3636 157.517 98.3636C156.949 98.3636 156.475 98.5095 156.097 98.8011C155.722 99.089 155.439 99.4811 155.25 99.9773C155.064 100.47 154.972 101.023 154.972 101.636C154.972 102.258 155.066 102.822 155.256 103.33C155.449 103.833 155.733 104.235 156.108 104.534C156.487 104.83 156.956 104.977 157.517 104.977ZM172.364 97.2727V98.4091H167.659V97.2727H172.364ZM169.068 106V96.0682C169.068 95.5682 169.186 95.1515 169.42 94.8182C169.655 94.4848 169.96 94.2348 170.335 94.0682C170.71 93.9015 171.106 93.8182 171.523 93.8182C171.852 93.8182 172.121 93.8447 172.33 93.8977C172.538 93.9508 172.693 94 172.795 94.0455L172.409 95.2045C172.341 95.1818 172.246 95.1534 172.125 95.1193C172.008 95.0852 171.852 95.0682 171.659 95.0682C171.216 95.0682 170.896 95.1799 170.699 95.4034C170.506 95.6269 170.409 95.9545 170.409 96.3864V106H169.068ZM177.429 106.182C176.641 106.182 175.95 105.994 175.355 105.619C174.764 105.244 174.302 104.72 173.969 104.045C173.639 103.371 173.474 102.583 173.474 101.682C173.474 100.773 173.639 99.9792 173.969 99.3011C174.302 98.6231 174.764 98.0966 175.355 97.7216C175.95 97.3466 176.641 97.1591 177.429 97.1591C178.217 97.1591 178.906 97.3466 179.497 97.7216C180.092 98.0966 180.554 98.6231 180.884 99.3011C181.217 99.9792 181.384 100.773 181.384 101.682C181.384 102.583 181.217 103.371 180.884 104.045C180.554 104.72 180.092 105.244 179.497 105.619C178.906 105.994 178.217 106.182 177.429 106.182ZM177.429 104.977C178.027 104.977 178.52 104.824 178.906 104.517C179.293 104.21 179.579 103.807 179.764 103.307C179.95 102.807 180.043 102.265 180.043 101.682C180.043 101.098 179.95 100.555 179.764 100.051C179.579 99.5473 179.293 99.1402 178.906 98.8295C178.52 98.5189 178.027 98.3636 177.429 98.3636C176.83 98.3636 176.338 98.5189 175.952 98.8295C175.565 99.1402 175.279 99.5473 175.094 100.051C174.908 100.555 174.815 101.098 174.815 101.682C174.815 102.265 174.908 102.807 175.094 103.307C175.279 103.807 175.565 104.21 175.952 104.517C176.338 104.824 176.83 104.977 177.429 104.977ZM183.43 106V97.2727H184.726V98.5909H184.817C184.976 98.1591 185.264 97.8087 185.68 97.5398C186.097 97.2708 186.567 97.1364 187.089 97.1364C187.188 97.1364 187.311 97.1383 187.459 97.142C187.607 97.1458 187.718 97.1515 187.794 97.1591V98.5227C187.749 98.5114 187.644 98.4943 187.482 98.4716C187.322 98.4451 187.154 98.4318 186.976 98.4318C186.552 98.4318 186.173 98.5208 185.839 98.6989C185.51 98.8731 185.249 99.1155 185.055 99.4261C184.866 99.733 184.771 100.083 184.771 100.477V106H183.43ZM197.952 94.3636V106H196.543V95.8409H196.474L193.634 97.7273V96.2955L196.543 94.3636H197.952ZM205.821 106V97.2727H207.116V98.5909H207.207C207.366 98.1591 207.654 97.8087 208.071 97.5398C208.488 97.2708 208.957 97.1364 209.48 97.1364C209.579 97.1364 209.702 97.1383 209.849 97.142C209.997 97.1458 210.109 97.1515 210.185 97.1591V98.5227C210.139 98.5114 210.035 98.4943 209.872 98.4716C209.713 98.4451 209.545 98.4318 209.366 98.4318C208.942 98.4318 208.563 98.5208 208.23 98.6989C207.901 98.8731 207.639 99.1155 207.446 99.4261C207.257 99.733 207.162 100.083 207.162 100.477V106H205.821ZM211.774 106V97.2727H213.115V106H211.774ZM212.456 95.8182C212.195 95.8182 211.969 95.7292 211.78 95.5511C211.594 95.3731 211.501 95.1591 211.501 94.9091C211.501 94.6591 211.594 94.4451 211.78 94.267C211.969 94.089 212.195 94 212.456 94C212.717 94 212.941 94.089 213.126 94.267C213.316 94.4451 213.411 94.6591 213.411 94.9091C213.411 95.1591 213.316 95.3731 213.126 95.5511C212.941 95.7292 212.717 95.8182 212.456 95.8182ZM218.866 106.182C218.139 106.182 217.497 105.998 216.94 105.631C216.384 105.259 215.948 104.737 215.634 104.062C215.319 103.384 215.162 102.583 215.162 101.659C215.162 100.742 215.319 99.947 215.634 99.2727C215.948 98.5985 216.385 98.0777 216.946 97.7102C217.507 97.3428 218.154 97.1591 218.889 97.1591C219.457 97.1591 219.906 97.2538 220.236 97.4432C220.569 97.6288 220.823 97.8409 220.997 98.0795C221.175 98.3144 221.313 98.5076 221.412 98.6591H221.526V94.3636H222.866V106H221.571V104.659H221.412C221.313 104.818 221.173 105.019 220.991 105.261C220.81 105.5 220.55 105.714 220.213 105.903C219.876 106.089 219.427 106.182 218.866 106.182ZM219.048 104.977C219.586 104.977 220.041 104.837 220.412 104.557C220.783 104.273 221.065 103.881 221.259 103.381C221.452 102.877 221.548 102.295 221.548 101.636C221.548 100.985 221.454 100.415 221.264 99.9261C221.075 99.4337 220.795 99.0511 220.423 98.7784C220.052 98.5019 219.594 98.3636 219.048 98.3636C218.48 98.3636 218.007 98.5095 217.628 98.8011C217.253 99.089 216.971 99.4811 216.781 99.9773C216.596 100.47 216.503 101.023 216.503 101.636C216.503 102.258 216.598 102.822 216.787 103.33C216.98 103.833 217.264 104.235 217.639 104.534C218.018 104.83 218.488 104.977 219.048 104.977ZM229.168 106.182C228.327 106.182 227.601 105.996 226.991 105.625C226.385 105.25 225.918 104.727 225.588 104.057C225.262 103.383 225.099 102.598 225.099 101.705C225.099 100.811 225.262 100.023 225.588 99.3409C225.918 98.6553 226.376 98.1212 226.963 97.7386C227.554 97.3523 228.243 97.1591 229.031 97.1591C229.486 97.1591 229.935 97.2348 230.378 97.3864C230.821 97.5379 231.224 97.7841 231.588 98.125C231.952 98.4621 232.241 98.9091 232.457 99.4659C232.673 100.023 232.781 100.708 232.781 101.523V102.091H226.054V100.932H231.418C231.418 100.439 231.319 100 231.122 99.6136C230.929 99.2273 230.652 98.9223 230.293 98.6989C229.937 98.4754 229.516 98.3636 229.031 98.3636C228.497 98.3636 228.035 98.4962 227.645 98.7614C227.259 99.0227 226.961 99.3636 226.753 99.7841C226.545 100.205 226.44 100.655 226.44 101.136V101.909C226.44 102.568 226.554 103.127 226.781 103.585C227.012 104.04 227.332 104.386 227.741 104.625C228.151 104.86 228.626 104.977 229.168 104.977C229.52 104.977 229.838 104.928 230.122 104.83C230.41 104.727 230.658 104.576 230.866 104.375C231.075 104.17 231.236 103.917 231.349 103.614L232.645 103.977C232.509 104.417 232.279 104.803 231.957 105.136C231.635 105.466 231.238 105.723 230.764 105.909C230.291 106.091 229.759 106.182 229.168 106.182ZM234.821 106V97.2727H236.116V98.5909H236.207C236.366 98.1591 236.654 97.8087 237.071 97.5398C237.488 97.2708 237.957 97.1364 238.48 97.1364C238.579 97.1364 238.702 97.1383 238.849 97.142C238.997 97.1458 239.109 97.1515 239.185 97.1591V98.5227C239.139 98.5114 239.035 98.4943 238.872 98.4716C238.713 98.4451 238.545 98.4318 238.366 98.4318C237.942 98.4318 237.563 98.5208 237.23 98.6989C236.901 98.8731 236.639 99.1155 236.446 99.4261C236.257 99.733 236.162 100.083 236.162 100.477V106H234.821ZM242.222 94.3636V95.3864C242.222 95.697 242.165 96.0284 242.051 96.3807C241.941 96.7292 241.778 97.0682 241.562 97.3977C241.35 97.7235 241.093 98.0076 240.79 98.25L240.062 97.6591C240.301 97.3182 240.508 96.964 240.682 96.5966C240.86 96.2254 240.949 95.8295 240.949 95.4091V94.3636H242.222ZM248.94 99.2273L247.736 99.5682C247.66 99.3674 247.548 99.1723 247.401 98.983C247.257 98.7898 247.06 98.6307 246.81 98.5057C246.56 98.3807 246.24 98.3182 245.849 98.3182C245.315 98.3182 244.87 98.4413 244.514 98.6875C244.162 98.9299 243.986 99.2386 243.986 99.6136C243.986 99.947 244.107 100.21 244.349 100.403C244.592 100.597 244.971 100.758 245.486 100.886L246.781 101.205C247.562 101.394 248.143 101.684 248.526 102.074C248.908 102.46 249.099 102.958 249.099 103.568C249.099 104.068 248.955 104.515 248.668 104.909C248.384 105.303 247.986 105.614 247.474 105.841C246.963 106.068 246.368 106.182 245.69 106.182C244.8 106.182 244.063 105.989 243.48 105.602C242.897 105.216 242.527 104.652 242.372 103.909L243.645 103.591C243.766 104.061 243.995 104.413 244.332 104.648C244.673 104.883 245.118 105 245.668 105C246.293 105 246.789 104.867 247.156 104.602C247.527 104.333 247.713 104.011 247.713 103.636C247.713 103.333 247.607 103.08 247.395 102.875C247.183 102.667 246.857 102.511 246.418 102.409L244.963 102.068C244.164 101.879 243.577 101.585 243.202 101.188C242.83 100.786 242.645 100.284 242.645 99.6818C242.645 99.1894 242.783 98.7538 243.06 98.375C243.34 97.9962 243.721 97.6989 244.202 97.483C244.687 97.267 245.236 97.1591 245.849 97.1591C246.713 97.1591 247.391 97.3485 247.884 97.7273C248.38 98.1061 248.732 98.6061 248.94 99.2273ZM259.163 106.182C258.345 106.182 257.641 105.989 257.05 105.602C256.459 105.216 256.004 104.684 255.686 104.006C255.368 103.328 255.209 102.553 255.209 101.682C255.209 100.795 255.372 100.013 255.697 99.3352C256.027 98.6534 256.485 98.1212 257.072 97.7386C257.663 97.3523 258.353 97.1591 259.141 97.1591C259.754 97.1591 260.307 97.2727 260.8 97.5C261.292 97.7273 261.696 98.0455 262.01 98.4545C262.324 98.8636 262.519 99.3409 262.595 99.8864H261.254C261.152 99.4886 260.925 99.1364 260.572 98.8295C260.224 98.5189 259.754 98.3636 259.163 98.3636C258.641 98.3636 258.182 98.5 257.788 98.7727C257.398 99.0417 257.093 99.4223 256.874 99.9148C256.658 100.403 256.55 100.977 256.55 101.636C256.55 102.311 256.656 102.898 256.868 103.398C257.084 103.898 257.387 104.286 257.777 104.562C258.171 104.839 258.633 104.977 259.163 104.977C259.512 104.977 259.828 104.917 260.112 104.795C260.396 104.674 260.637 104.5 260.834 104.273C261.031 104.045 261.171 103.773 261.254 103.455H262.595C262.519 103.97 262.332 104.434 262.033 104.847C261.737 105.256 261.345 105.581 260.857 105.824C260.372 106.062 259.807 106.182 259.163 106.182ZM268.101 106.182C267.313 106.182 266.622 105.994 266.027 105.619C265.436 105.244 264.974 104.72 264.641 104.045C264.311 103.371 264.146 102.583 264.146 101.682C264.146 100.773 264.311 99.9792 264.641 99.3011C264.974 98.6231 265.436 98.0966 266.027 97.7216C266.622 97.3466 267.313 97.1591 268.101 97.1591C268.889 97.1591 269.578 97.3466 270.169 97.7216C270.764 98.0966 271.226 98.6231 271.555 99.3011C271.889 99.9792 272.055 100.773 272.055 101.682C272.055 102.583 271.889 103.371 271.555 104.045C271.226 104.72 270.764 105.244 270.169 105.619C269.578 105.994 268.889 106.182 268.101 106.182ZM268.101 104.977C268.699 104.977 269.192 104.824 269.578 104.517C269.964 104.21 270.25 103.807 270.436 103.307C270.622 102.807 270.714 102.265 270.714 101.682C270.714 101.098 270.622 100.555 270.436 100.051C270.25 99.5473 269.964 99.1402 269.578 98.8295C269.192 98.5189 268.699 98.3636 268.101 98.3636C267.502 98.3636 267.01 98.5189 266.624 98.8295C266.237 99.1402 265.951 99.5473 265.766 100.051C265.58 100.555 265.487 101.098 265.487 101.682C265.487 102.265 265.58 102.807 265.766 103.307C265.951 103.807 266.237 104.21 266.624 104.517C267.01 104.824 267.502 104.977 268.101 104.977ZM280.926 97.2727L277.699 106H276.335L273.108 97.2727H274.562L276.972 104.227H277.062L279.472 97.2727H280.926ZM286.043 106.182C285.202 106.182 284.476 105.996 283.866 105.625C283.26 105.25 282.793 104.727 282.463 104.057C282.137 103.383 281.974 102.598 281.974 101.705C281.974 100.811 282.137 100.023 282.463 99.3409C282.793 98.6553 283.251 98.1212 283.838 97.7386C284.429 97.3523 285.118 97.1591 285.906 97.1591C286.361 97.1591 286.81 97.2348 287.253 97.3864C287.696 97.5379 288.099 97.7841 288.463 98.125C288.827 98.4621 289.116 98.9091 289.332 99.4659C289.548 100.023 289.656 100.708 289.656 101.523V102.091H282.929V100.932H288.293C288.293 100.439 288.194 100 287.997 99.6136C287.804 99.2273 287.527 98.9223 287.168 98.6989C286.812 98.4754 286.391 98.3636 285.906 98.3636C285.372 98.3636 284.91 98.4962 284.52 98.7614C284.134 99.0227 283.836 99.3636 283.628 99.7841C283.42 100.205 283.315 100.655 283.315 101.136V101.909C283.315 102.568 283.429 103.127 283.656 103.585C283.887 104.04 284.207 104.386 284.616 104.625C285.026 104.86 285.501 104.977 286.043 104.977C286.395 104.977 286.713 104.928 286.997 104.83C287.285 104.727 287.533 104.576 287.741 104.375C287.95 104.17 288.111 103.917 288.224 103.614L289.52 103.977C289.384 104.417 289.154 104.803 288.832 105.136C288.51 105.466 288.113 105.723 287.639 105.909C287.166 106.091 286.634 106.182 286.043 106.182ZM291.696 106V97.2727H292.991V98.5909H293.082C293.241 98.1591 293.529 97.8087 293.946 97.5398C294.363 97.2708 294.832 97.1364 295.355 97.1364C295.454 97.1364 295.577 97.1383 295.724 97.142C295.872 97.1458 295.984 97.1515 296.06 97.1591V98.5227C296.014 98.5114 295.91 98.4943 295.747 98.4716C295.588 98.4451 295.42 98.4318 295.241 98.4318C294.817 98.4318 294.438 98.5208 294.105 98.6989C293.776 98.8731 293.514 99.1155 293.321 99.4261C293.132 99.733 293.037 100.083 293.037 100.477V106H291.696ZM297.626 106.091C297.346 106.091 297.106 105.991 296.905 105.79C296.704 105.589 296.604 105.348 296.604 105.068C296.604 104.788 296.704 104.547 296.905 104.347C297.106 104.146 297.346 104.045 297.626 104.045C297.907 104.045 298.147 104.146 298.348 104.347C298.549 104.547 298.649 104.788 298.649 105.068C298.649 105.254 298.602 105.424 298.507 105.58C298.416 105.735 298.293 105.86 298.138 105.955C297.986 106.045 297.816 106.091 297.626 106.091ZM306.214 106H304.737L309.01 94.3636H310.464L314.737 106H313.26L309.783 96.2045H309.692L306.214 106ZM306.76 101.455H312.714V102.705H306.76V101.455ZM319.663 106.182C318.936 106.182 318.294 105.998 317.737 105.631C317.18 105.259 316.745 104.737 316.43 104.062C316.116 103.384 315.959 102.583 315.959 101.659C315.959 100.742 316.116 99.947 316.43 99.2727C316.745 98.5985 317.182 98.0777 317.743 97.7102C318.304 97.3428 318.951 97.1591 319.686 97.1591C320.254 97.1591 320.703 97.2538 321.033 97.4432C321.366 97.6288 321.62 97.8409 321.794 98.0795C321.972 98.3144 322.11 98.5076 322.209 98.6591H322.322V94.3636H323.663V106H322.368V104.659H322.209C322.11 104.818 321.97 105.019 321.788 105.261C321.607 105.5 321.347 105.714 321.01 105.903C320.673 106.089 320.224 106.182 319.663 106.182ZM319.845 104.977C320.383 104.977 320.838 104.837 321.209 104.557C321.58 104.273 321.862 103.881 322.055 103.381C322.249 102.877 322.345 102.295 322.345 101.636C322.345 100.985 322.25 100.415 322.061 99.9261C321.872 99.4337 321.591 99.0511 321.22 98.7784C320.849 98.5019 320.391 98.3636 319.845 98.3636C319.277 98.3636 318.804 98.5095 318.425 98.8011C318.05 99.089 317.768 99.4811 317.578 99.9773C317.393 100.47 317.3 101.023 317.3 101.636C317.3 102.258 317.394 102.822 317.584 103.33C317.777 103.833 318.061 104.235 318.436 104.534C318.815 104.83 319.285 104.977 319.845 104.977ZM329.601 106.182C328.874 106.182 328.232 105.998 327.675 105.631C327.118 105.259 326.682 104.737 326.368 104.062C326.054 103.384 325.896 102.583 325.896 101.659C325.896 100.742 326.054 99.947 326.368 99.2727C326.682 98.5985 327.12 98.0777 327.68 97.7102C328.241 97.3428 328.889 97.1591 329.624 97.1591C330.192 97.1591 330.641 97.2538 330.97 97.4432C331.304 97.6288 331.557 97.8409 331.732 98.0795C331.91 98.3144 332.048 98.5076 332.146 98.6591H332.26V94.3636H333.601V106H332.305V104.659H332.146C332.048 104.818 331.908 105.019 331.726 105.261C331.544 105.5 331.285 105.714 330.947 105.903C330.61 106.089 330.161 106.182 329.601 106.182ZM329.783 104.977C330.321 104.977 330.775 104.837 331.146 104.557C331.518 104.273 331.8 103.881 331.993 103.381C332.186 102.877 332.283 102.295 332.283 101.636C332.283 100.985 332.188 100.415 331.999 99.9261C331.809 99.4337 331.529 99.0511 331.158 98.7784C330.786 98.5019 330.328 98.3636 329.783 98.3636C329.214 98.3636 328.741 98.5095 328.362 98.8011C327.987 99.089 327.705 99.4811 327.516 99.9773C327.33 100.47 327.237 101.023 327.237 101.636C327.237 102.258 327.332 102.822 327.521 103.33C327.714 103.833 327.999 104.235 328.374 104.534C328.752 104.83 329.222 104.977 329.783 104.977ZM344.538 97.2727V98.4091H340.016V97.2727H344.538ZM341.334 95.1818H342.675V103.5C342.675 103.879 342.73 104.163 342.839 104.352C342.953 104.538 343.097 104.663 343.271 104.727C343.449 104.788 343.637 104.818 343.834 104.818C343.982 104.818 344.103 104.811 344.197 104.795C344.292 104.777 344.368 104.761 344.425 104.75L344.697 105.955C344.607 105.989 344.48 106.023 344.317 106.057C344.154 106.095 343.947 106.114 343.697 106.114C343.319 106.114 342.947 106.032 342.584 105.869C342.224 105.706 341.925 105.458 341.686 105.125C341.451 104.792 341.334 104.371 341.334 103.864V95.1818ZM348.084 100.75V106H346.743V94.3636H348.084V98.6364H348.197C348.402 98.1856 348.709 97.8277 349.118 97.5625C349.531 97.2936 350.08 97.1591 350.766 97.1591C351.36 97.1591 351.881 97.2784 352.328 97.517C352.775 97.7519 353.122 98.1136 353.368 98.6023C353.618 99.0871 353.743 99.7045 353.743 100.455V106H352.402V100.545C352.402 99.8523 352.222 99.3163 351.862 98.9375C351.506 98.5549 351.012 98.3636 350.379 98.3636C349.94 98.3636 349.546 98.4564 349.197 98.642C348.853 98.8277 348.58 99.0985 348.379 99.4545C348.182 99.8106 348.084 100.242 348.084 100.75ZM359.855 106.182C359.014 106.182 358.289 105.996 357.679 105.625C357.073 105.25 356.605 104.727 356.276 104.057C355.95 103.383 355.787 102.598 355.787 101.705C355.787 100.811 355.95 100.023 356.276 99.3409C356.605 98.6553 357.063 98.1212 357.651 97.7386C358.241 97.3523 358.931 97.1591 359.719 97.1591C360.173 97.1591 360.622 97.2348 361.065 97.3864C361.509 97.5379 361.912 97.7841 362.276 98.125C362.639 98.4621 362.929 98.9091 363.145 99.4659C363.361 100.023 363.469 100.708 363.469 101.523V102.091H356.741V100.932H362.105C362.105 100.439 362.007 100 361.81 99.6136C361.616 99.2273 361.34 98.9223 360.98 98.6989C360.624 98.4754 360.204 98.3636 359.719 98.3636C359.185 98.3636 358.723 98.4962 358.332 98.7614C357.946 99.0227 357.649 99.3636 357.44 99.7841C357.232 100.205 357.128 100.655 357.128 101.136V101.909C357.128 102.568 357.241 103.127 357.469 103.585C357.7 104.04 358.02 104.386 358.429 104.625C358.838 104.86 359.313 104.977 359.855 104.977C360.207 104.977 360.526 104.928 360.81 104.83C361.098 104.727 361.346 104.576 361.554 104.375C361.762 104.17 361.923 103.917 362.037 103.614L363.332 103.977C363.196 104.417 362.967 104.803 362.645 105.136C362.323 105.466 361.925 105.723 361.452 105.909C360.978 106.091 360.446 106.182 359.855 106.182ZM365.509 106V97.2727H366.849V106H365.509ZM366.19 95.8182C365.929 95.8182 365.704 95.7292 365.514 95.5511C365.329 95.3731 365.236 95.1591 365.236 94.9091C365.236 94.6591 365.329 94.4451 365.514 94.267C365.704 94.089 365.929 94 366.19 94C366.452 94 366.675 94.089 366.861 94.267C367.05 94.4451 367.145 94.6591 367.145 94.9091C367.145 95.1591 367.05 95.3731 366.861 95.5511C366.675 95.7292 366.452 95.8182 366.19 95.8182ZM369.305 106V97.2727H370.601V98.5909H370.692C370.851 98.1591 371.139 97.8087 371.555 97.5398C371.972 97.2708 372.442 97.1364 372.964 97.1364C373.063 97.1364 373.186 97.1383 373.334 97.142C373.482 97.1458 373.593 97.1515 373.669 97.1591V98.5227C373.624 98.5114 373.519 98.4943 373.357 98.4716C373.197 98.4451 373.029 98.4318 372.851 98.4318C372.427 98.4318 372.048 98.5208 371.714 98.6989C371.385 98.8731 371.124 99.1155 370.93 99.4261C370.741 99.733 370.646 100.083 370.646 100.477V106H369.305ZM18.5682 124.75V130H17.2273V121.273H18.5227V122.636H18.6364C18.8409 122.193 19.1515 121.837 19.5682 121.568C19.9848 121.295 20.5227 121.159 21.1818 121.159C21.7727 121.159 22.2898 121.28 22.733 121.523C23.1761 121.761 23.5208 122.125 23.767 122.614C24.0133 123.098 24.1364 123.712 24.1364 124.455V130H22.7955V124.545C22.7955 123.86 22.6174 123.326 22.2614 122.943C21.9053 122.557 21.4167 122.364 20.7955 122.364C20.3674 122.364 19.9848 122.456 19.6477 122.642C19.3144 122.828 19.0511 123.098 18.858 123.455C18.6648 123.811 18.5682 124.242 18.5682 124.75ZM29.1548 130.205C28.6018 130.205 28.0999 130.1 27.6491 129.892C27.1984 129.68 26.8404 129.375 26.5753 128.977C26.3101 128.576 26.1776 128.091 26.1776 127.523C26.1776 127.023 26.276 126.617 26.473 126.307C26.67 125.992 26.9332 125.746 27.2628 125.568C27.5923 125.39 27.956 125.258 28.3537 125.17C28.7552 125.08 29.1586 125.008 29.5639 124.955C30.0942 124.886 30.5241 124.835 30.8537 124.801C31.187 124.763 31.4295 124.701 31.581 124.614C31.7363 124.527 31.8139 124.375 31.8139 124.159V124.114C31.8139 123.553 31.6605 123.117 31.3537 122.807C31.0507 122.496 30.5904 122.341 29.973 122.341C29.3329 122.341 28.831 122.481 28.4673 122.761C28.1037 123.042 27.848 123.341 27.7003 123.659L26.4276 123.205C26.6548 122.674 26.9579 122.261 27.3366 121.966C27.7192 121.667 28.1359 121.458 28.5866 121.341C29.0412 121.22 29.4882 121.159 29.9276 121.159C30.2079 121.159 30.5298 121.193 30.8935 121.261C31.2609 121.326 31.6151 121.46 31.956 121.665C32.3007 121.869 32.5866 122.178 32.8139 122.591C33.0412 123.004 33.1548 123.557 33.1548 124.25V130H31.8139V128.818H31.7457C31.6548 129.008 31.5033 129.21 31.2912 129.426C31.0791 129.642 30.7969 129.826 30.4446 129.977C30.0923 130.129 29.6624 130.205 29.1548 130.205ZM29.3594 129C29.8897 129 30.3366 128.896 30.7003 128.688C31.0677 128.479 31.3442 128.21 31.5298 127.881C31.7192 127.551 31.8139 127.205 31.8139 126.841V125.614C31.7571 125.682 31.6321 125.744 31.4389 125.801C31.2495 125.854 31.0298 125.902 30.7798 125.943C30.5336 125.981 30.2931 126.015 30.0582 126.045C29.8272 126.072 29.6397 126.095 29.4957 126.114C29.1473 126.159 28.8215 126.233 28.5185 126.335C28.2192 126.434 27.9768 126.583 27.7912 126.784C27.6094 126.981 27.5185 127.25 27.5185 127.591C27.5185 128.057 27.6908 128.409 28.0355 128.648C28.384 128.883 28.8253 129 29.3594 129ZM35.6023 130V121.273H36.8977V122.636H37.0114C37.1932 122.17 37.4867 121.809 37.892 121.551C38.2973 121.29 38.7841 121.159 39.3523 121.159C39.928 121.159 40.4072 121.29 40.7898 121.551C41.1761 121.809 41.4773 122.17 41.6932 122.636H41.7841C42.0076 122.186 42.3428 121.828 42.7898 121.562C43.2367 121.294 43.7727 121.159 44.3977 121.159C45.178 121.159 45.8163 121.403 46.3125 121.892C46.8087 122.377 47.0568 123.133 47.0568 124.159V130H45.7159V124.159C45.7159 123.515 45.5398 123.055 45.1875 122.778C44.8352 122.502 44.4205 122.364 43.9432 122.364C43.3295 122.364 42.8542 122.549 42.517 122.92C42.1799 123.288 42.0114 123.754 42.0114 124.318V130H40.6477V124.023C40.6477 123.527 40.4867 123.127 40.1648 122.824C39.8428 122.517 39.428 122.364 38.9205 122.364C38.572 122.364 38.2462 122.456 37.9432 122.642C37.6439 122.828 37.4015 123.085 37.2159 123.415C37.0341 123.741 36.9432 124.117 36.9432 124.545V130H35.6023ZM53.1676 130.182C52.3267 130.182 51.6013 129.996 50.9915 129.625C50.3854 129.25 49.9176 128.727 49.5881 128.057C49.2623 127.383 49.0994 126.598 49.0994 125.705C49.0994 124.811 49.2623 124.023 49.5881 123.341C49.9176 122.655 50.3759 122.121 50.9631 121.739C51.554 121.352 52.2434 121.159 53.0312 121.159C53.4858 121.159 53.9347 121.235 54.3778 121.386C54.821 121.538 55.2244 121.784 55.5881 122.125C55.9517 122.462 56.2415 122.909 56.4574 123.466C56.6733 124.023 56.7812 124.708 56.7812 125.523V126.091H50.054V124.932H55.4176C55.4176 124.439 55.3191 124 55.1222 123.614C54.929 123.227 54.6525 122.922 54.2926 122.699C53.9366 122.475 53.5161 122.364 53.0312 122.364C52.4972 122.364 52.035 122.496 51.6449 122.761C51.2585 123.023 50.9612 123.364 50.7528 123.784C50.5445 124.205 50.4403 124.655 50.4403 125.136V125.909C50.4403 126.568 50.554 127.127 50.7812 127.585C51.0123 128.04 51.3324 128.386 51.7415 128.625C52.1506 128.86 52.6259 128.977 53.1676 128.977C53.5199 128.977 53.8381 128.928 54.1222 128.83C54.41 128.727 54.6581 128.576 54.8665 128.375C55.0748 128.17 55.2358 127.917 55.3494 127.614L56.6449 127.977C56.5085 128.417 56.2794 128.803 55.9574 129.136C55.6354 129.466 55.2377 129.723 54.7642 129.909C54.2907 130.091 53.7585 130.182 53.1676 130.182ZM64.6619 124.75V130H63.321V121.273H64.6165V122.636H64.7301C64.9347 122.193 65.2453 121.837 65.6619 121.568C66.0786 121.295 66.6165 121.159 67.2756 121.159C67.8665 121.159 68.3835 121.28 68.8267 121.523C69.2699 121.761 69.6146 122.125 69.8608 122.614C70.107 123.098 70.2301 123.712 70.2301 124.455V130H68.8892V124.545C68.8892 123.86 68.7112 123.326 68.3551 122.943C67.9991 122.557 67.5104 122.364 66.8892 122.364C66.4612 122.364 66.0786 122.456 65.7415 122.642C65.4081 122.828 65.1449 123.098 64.9517 123.455C64.7585 123.811 64.6619 124.242 64.6619 124.75ZM76.2259 130.182C75.438 130.182 74.7467 129.994 74.152 129.619C73.5611 129.244 73.099 128.72 72.7656 128.045C72.4361 127.371 72.2713 126.583 72.2713 125.682C72.2713 124.773 72.4361 123.979 72.7656 123.301C73.099 122.623 73.5611 122.097 74.152 121.722C74.7467 121.347 75.438 121.159 76.2259 121.159C77.0137 121.159 77.7031 121.347 78.294 121.722C78.8887 122.097 79.3509 122.623 79.6804 123.301C80.0137 123.979 80.1804 124.773 80.1804 125.682C80.1804 126.583 80.0137 127.371 79.6804 128.045C79.3509 128.72 78.8887 129.244 78.294 129.619C77.7031 129.994 77.0137 130.182 76.2259 130.182ZM76.2259 128.977C76.8243 128.977 77.3168 128.824 77.7031 128.517C78.0895 128.21 78.3755 127.807 78.5611 127.307C78.7467 126.807 78.8395 126.265 78.8395 125.682C78.8395 125.098 78.7467 124.555 78.5611 124.051C78.3755 123.547 78.0895 123.14 77.7031 122.83C77.3168 122.519 76.8243 122.364 76.2259 122.364C75.6274 122.364 75.1349 122.519 74.7486 122.83C74.3622 123.14 74.0762 123.547 73.8906 124.051C73.705 124.555 73.6122 125.098 73.6122 125.682C73.6122 126.265 73.705 126.807 73.8906 127.307C74.0762 127.807 74.3622 128.21 74.7486 128.517C75.1349 128.824 75.6274 128.977 76.2259 128.977ZM83.9077 130L81.2486 121.273H82.6577L84.544 127.955H84.6349L86.4986 121.273H87.9304L89.7713 127.932H89.8622L91.7486 121.273H93.1577L90.4986 130H89.1804L87.2713 123.295H87.1349L85.2259 130H83.9077ZM95.7429 128.409L95.652 129.023C95.5876 129.455 95.4891 129.917 95.3565 130.409C95.2277 130.902 95.0933 131.366 94.9531 131.801C94.813 132.237 94.6974 132.583 94.6065 132.841H93.5838C93.633 132.598 93.6974 132.278 93.777 131.881C93.8565 131.483 93.9361 131.038 94.0156 130.545C94.099 130.057 94.1671 129.557 94.2202 129.045L94.2884 128.409H95.7429ZM106.273 130.182C105.485 130.182 104.794 129.994 104.199 129.619C103.608 129.244 103.146 128.72 102.812 128.045C102.483 127.371 102.318 126.583 102.318 125.682C102.318 124.773 102.483 123.979 102.812 123.301C103.146 122.623 103.608 122.097 104.199 121.722C104.794 121.347 105.485 121.159 106.273 121.159C107.061 121.159 107.75 121.347 108.341 121.722C108.936 122.097 109.398 122.623 109.727 123.301C110.061 123.979 110.227 124.773 110.227 125.682C110.227 126.583 110.061 127.371 109.727 128.045C109.398 128.72 108.936 129.244 108.341 129.619C107.75 129.994 107.061 130.182 106.273 130.182ZM106.273 128.977C106.871 128.977 107.364 128.824 107.75 128.517C108.136 128.21 108.422 127.807 108.608 127.307C108.794 126.807 108.886 126.265 108.886 125.682C108.886 125.098 108.794 124.555 108.608 124.051C108.422 123.547 108.136 123.14 107.75 122.83C107.364 122.519 106.871 122.364 106.273 122.364C105.674 122.364 105.182 122.519 104.795 122.83C104.409 123.14 104.123 123.547 103.938 124.051C103.752 124.555 103.659 125.098 103.659 125.682C103.659 126.265 103.752 126.807 103.938 127.307C104.123 127.807 104.409 128.21 104.795 128.517C105.182 128.824 105.674 128.977 106.273 128.977ZM112.274 130V121.273H113.57V122.591H113.661C113.82 122.159 114.107 121.809 114.524 121.54C114.941 121.271 115.411 121.136 115.933 121.136C116.032 121.136 116.155 121.138 116.303 121.142C116.45 121.146 116.562 121.152 116.638 121.159V122.523C116.592 122.511 116.488 122.494 116.325 122.472C116.166 122.445 115.998 122.432 115.82 122.432C115.395 122.432 115.017 122.521 114.683 122.699C114.354 122.873 114.092 123.116 113.899 123.426C113.71 123.733 113.615 124.083 113.615 124.477V130H112.274ZM126.614 121.273V122.409H121.909V121.273H126.614ZM123.318 130V120.068C123.318 119.568 123.436 119.152 123.67 118.818C123.905 118.485 124.21 118.235 124.585 118.068C124.96 117.902 125.356 117.818 125.773 117.818C126.102 117.818 126.371 117.845 126.58 117.898C126.788 117.951 126.943 118 127.045 118.045L126.659 119.205C126.591 119.182 126.496 119.153 126.375 119.119C126.258 119.085 126.102 119.068 125.909 119.068C125.466 119.068 125.146 119.18 124.949 119.403C124.756 119.627 124.659 119.955 124.659 120.386V130H123.318ZM128.493 130V121.273H129.834V130H128.493ZM129.175 119.818C128.913 119.818 128.688 119.729 128.499 119.551C128.313 119.373 128.22 119.159 128.22 118.909C128.22 118.659 128.313 118.445 128.499 118.267C128.688 118.089 128.913 118 129.175 118C129.436 118 129.66 118.089 129.845 118.267C130.035 118.445 130.129 118.659 130.129 118.909C130.129 119.159 130.035 119.373 129.845 119.551C129.66 119.729 129.436 119.818 129.175 119.818ZM133.631 124.75V130H132.29V121.273H133.585V122.636H133.699C133.903 122.193 134.214 121.837 134.631 121.568C135.047 121.295 135.585 121.159 136.244 121.159C136.835 121.159 137.352 121.28 137.795 121.523C138.239 121.761 138.583 122.125 138.83 122.614C139.076 123.098 139.199 123.712 139.199 124.455V130H137.858V124.545C137.858 123.86 137.68 123.326 137.324 122.943C136.968 122.557 136.479 122.364 135.858 122.364C135.43 122.364 135.047 122.456 134.71 122.642C134.377 122.828 134.114 123.098 133.92 123.455C133.727 123.811 133.631 124.242 133.631 124.75ZM141.649 130V121.273H142.99V130H141.649ZM142.331 119.818C142.07 119.818 141.844 119.729 141.655 119.551C141.469 119.373 141.376 119.159 141.376 118.909C141.376 118.659 141.469 118.445 141.655 118.267C141.844 118.089 142.07 118 142.331 118C142.592 118 142.816 118.089 143.001 118.267C143.191 118.445 143.286 118.659 143.286 118.909C143.286 119.159 143.191 119.373 143.001 119.551C142.816 119.729 142.592 119.818 142.331 119.818ZM151.628 123.227L150.423 123.568C150.348 123.367 150.236 123.172 150.088 122.983C149.944 122.79 149.747 122.631 149.497 122.506C149.247 122.381 148.927 122.318 148.537 122.318C148.003 122.318 147.558 122.441 147.202 122.688C146.849 122.93 146.673 123.239 146.673 123.614C146.673 123.947 146.795 124.21 147.037 124.403C147.279 124.597 147.658 124.758 148.173 124.886L149.469 125.205C150.249 125.394 150.83 125.684 151.213 126.074C151.596 126.46 151.787 126.958 151.787 127.568C151.787 128.068 151.643 128.515 151.355 128.909C151.071 129.303 150.673 129.614 150.162 129.841C149.651 130.068 149.056 130.182 148.378 130.182C147.488 130.182 146.751 129.989 146.168 129.602C145.584 129.216 145.215 128.652 145.06 127.909L146.332 127.591C146.454 128.061 146.683 128.413 147.02 128.648C147.361 128.883 147.806 129 148.355 129C148.98 129 149.476 128.867 149.844 128.602C150.215 128.333 150.401 128.011 150.401 127.636C150.401 127.333 150.295 127.08 150.082 126.875C149.87 126.667 149.545 126.511 149.105 126.409L147.651 126.068C146.851 125.879 146.264 125.585 145.889 125.188C145.518 124.786 145.332 124.284 145.332 123.682C145.332 123.189 145.471 122.754 145.747 122.375C146.027 121.996 146.408 121.699 146.889 121.483C147.374 121.267 147.923 121.159 148.537 121.159C149.401 121.159 150.079 121.348 150.571 121.727C151.067 122.106 151.42 122.606 151.628 123.227ZM155.146 124.75V130H153.805V118.364H155.146V122.636H155.26C155.464 122.186 155.771 121.828 156.18 121.562C156.593 121.294 157.143 121.159 157.828 121.159C158.423 121.159 158.944 121.278 159.391 121.517C159.838 121.752 160.184 122.114 160.43 122.602C160.68 123.087 160.805 123.705 160.805 124.455V130H159.464V124.545C159.464 123.852 159.285 123.316 158.925 122.938C158.569 122.555 158.074 122.364 157.442 122.364C157.002 122.364 156.608 122.456 156.26 122.642C155.915 122.828 155.643 123.098 155.442 123.455C155.245 123.811 155.146 124.242 155.146 124.75ZM169.099 118.364V130H167.759V118.364H169.099ZM174.124 130.205C173.571 130.205 173.069 130.1 172.618 129.892C172.167 129.68 171.809 129.375 171.544 128.977C171.279 128.576 171.146 128.091 171.146 127.523C171.146 127.023 171.245 126.617 171.442 126.307C171.639 125.992 171.902 125.746 172.232 125.568C172.561 125.39 172.925 125.258 173.322 125.17C173.724 125.08 174.127 125.008 174.533 124.955C175.063 124.886 175.493 124.835 175.822 124.801C176.156 124.763 176.398 124.701 176.55 124.614C176.705 124.527 176.783 124.375 176.783 124.159V124.114C176.783 123.553 176.629 123.117 176.322 122.807C176.019 122.496 175.559 122.341 174.942 122.341C174.302 122.341 173.8 122.481 173.436 122.761C173.072 123.042 172.817 123.341 172.669 123.659L171.396 123.205C171.624 122.674 171.927 122.261 172.305 121.966C172.688 121.667 173.105 121.458 173.555 121.341C174.01 121.22 174.457 121.159 174.896 121.159C175.177 121.159 175.499 121.193 175.862 121.261C176.23 121.326 176.584 121.46 176.925 121.665C177.269 121.869 177.555 122.178 177.783 122.591C178.01 123.004 178.124 123.557 178.124 124.25V130H176.783V128.818H176.714C176.624 129.008 176.472 129.21 176.26 129.426C176.048 129.642 175.766 129.826 175.413 129.977C175.061 130.129 174.631 130.205 174.124 130.205ZM174.328 129C174.858 129 175.305 128.896 175.669 128.688C176.036 128.479 176.313 128.21 176.499 127.881C176.688 127.551 176.783 127.205 176.783 126.841V125.614C176.726 125.682 176.601 125.744 176.408 125.801C176.218 125.854 175.999 125.902 175.749 125.943C175.502 125.981 175.262 126.015 175.027 126.045C174.796 126.072 174.608 126.095 174.464 126.114C174.116 126.159 173.79 126.233 173.487 126.335C173.188 126.434 172.946 126.583 172.76 126.784C172.578 126.981 172.487 127.25 172.487 127.591C172.487 128.057 172.66 128.409 173.004 128.648C173.353 128.883 173.794 129 174.328 129ZM184.366 121.273V122.409H179.844V121.273H184.366ZM181.162 119.182H182.503V127.5C182.503 127.879 182.558 128.163 182.668 128.352C182.781 128.538 182.925 128.663 183.099 128.727C183.277 128.788 183.465 128.818 183.662 128.818C183.81 128.818 183.931 128.811 184.026 128.795C184.12 128.777 184.196 128.761 184.253 128.75L184.526 129.955C184.435 129.989 184.308 130.023 184.145 130.057C183.982 130.095 183.776 130.114 183.526 130.114C183.147 130.114 182.776 130.032 182.412 129.869C182.052 129.706 181.753 129.458 181.514 129.125C181.279 128.792 181.162 128.371 181.162 127.864V119.182ZM189.949 130.182C189.108 130.182 188.383 129.996 187.773 129.625C187.167 129.25 186.699 128.727 186.369 128.057C186.044 127.383 185.881 126.598 185.881 125.705C185.881 124.811 186.044 124.023 186.369 123.341C186.699 122.655 187.157 122.121 187.744 121.739C188.335 121.352 189.025 121.159 189.812 121.159C190.267 121.159 190.716 121.235 191.159 121.386C191.602 121.538 192.006 121.784 192.369 122.125C192.733 122.462 193.023 122.909 193.239 123.466C193.455 124.023 193.562 124.708 193.562 125.523V126.091H186.835V124.932H192.199C192.199 124.439 192.1 124 191.903 123.614C191.71 123.227 191.434 122.922 191.074 122.699C190.718 122.475 190.297 122.364 189.812 122.364C189.278 122.364 188.816 122.496 188.426 122.761C188.04 123.023 187.742 123.364 187.534 123.784C187.326 124.205 187.222 124.655 187.222 125.136V125.909C187.222 126.568 187.335 127.127 187.562 127.585C187.794 128.04 188.114 128.386 188.523 128.625C188.932 128.86 189.407 128.977 189.949 128.977C190.301 128.977 190.619 128.928 190.903 128.83C191.191 128.727 191.439 128.576 191.648 128.375C191.856 128.17 192.017 127.917 192.131 127.614L193.426 127.977C193.29 128.417 193.061 128.803 192.739 129.136C192.417 129.466 192.019 129.723 191.545 129.909C191.072 130.091 190.54 130.182 189.949 130.182ZM195.602 130V121.273H196.898V122.591H196.989C197.148 122.159 197.436 121.809 197.852 121.54C198.269 121.271 198.739 121.136 199.261 121.136C199.36 121.136 199.483 121.138 199.631 121.142C199.778 121.146 199.89 121.152 199.966 121.159V122.523C199.92 122.511 199.816 122.494 199.653 122.472C199.494 122.445 199.326 122.432 199.148 122.432C198.723 122.432 198.345 122.521 198.011 122.699C197.682 122.873 197.42 123.116 197.227 123.426C197.038 123.733 196.943 124.083 196.943 124.477V130H195.602ZM209.942 121.273V122.409H205.237V121.273H209.942ZM206.646 130V120.068C206.646 119.568 206.764 119.152 206.999 118.818C207.233 118.485 207.538 118.235 207.913 118.068C208.288 117.902 208.684 117.818 209.101 117.818C209.43 117.818 209.699 117.845 209.908 117.898C210.116 117.951 210.271 118 210.374 118.045L209.987 119.205C209.919 119.182 209.824 119.153 209.703 119.119C209.586 119.085 209.43 119.068 209.237 119.068C208.794 119.068 208.474 119.18 208.277 119.403C208.084 119.627 207.987 119.955 207.987 120.386V130H206.646ZM211.821 130V121.273H213.116V122.591H213.207C213.366 122.159 213.654 121.809 214.071 121.54C214.488 121.271 214.957 121.136 215.48 121.136C215.579 121.136 215.702 121.138 215.849 121.142C215.997 121.146 216.109 121.152 216.185 121.159V122.523C216.139 122.511 216.035 122.494 215.872 122.472C215.713 122.445 215.545 122.432 215.366 122.432C214.942 122.432 214.563 122.521 214.23 122.699C213.901 122.873 213.639 123.116 213.446 123.426C213.257 123.733 213.162 124.083 213.162 124.477V130H211.821ZM221.054 130.182C220.266 130.182 219.575 129.994 218.98 129.619C218.389 129.244 217.927 128.72 217.594 128.045C217.264 127.371 217.099 126.583 217.099 125.682C217.099 124.773 217.264 123.979 217.594 123.301C217.927 122.623 218.389 122.097 218.98 121.722C219.575 121.347 220.266 121.159 221.054 121.159C221.842 121.159 222.531 121.347 223.122 121.722C223.717 122.097 224.179 122.623 224.509 123.301C224.842 123.979 225.009 124.773 225.009 125.682C225.009 126.583 224.842 127.371 224.509 128.045C224.179 128.72 223.717 129.244 223.122 129.619C222.531 129.994 221.842 130.182 221.054 130.182ZM221.054 128.977C221.652 128.977 222.145 128.824 222.531 128.517C222.918 128.21 223.204 127.807 223.389 127.307C223.575 126.807 223.668 126.265 223.668 125.682C223.668 125.098 223.575 124.555 223.389 124.051C223.204 123.547 222.918 123.14 222.531 122.83C222.145 122.519 221.652 122.364 221.054 122.364C220.455 122.364 219.963 122.519 219.577 122.83C219.19 123.14 218.904 123.547 218.719 124.051C218.533 124.555 218.44 125.098 218.44 125.682C218.44 126.265 218.533 126.807 218.719 127.307C218.904 127.807 219.19 128.21 219.577 128.517C219.963 128.824 220.455 128.977 221.054 128.977ZM227.055 130V121.273H228.351V122.636H228.464C228.646 122.17 228.94 121.809 229.345 121.551C229.75 121.29 230.237 121.159 230.805 121.159C231.381 121.159 231.86 121.29 232.243 121.551C232.629 121.809 232.93 122.17 233.146 122.636H233.237C233.461 122.186 233.796 121.828 234.243 121.562C234.69 121.294 235.226 121.159 235.851 121.159C236.631 121.159 237.269 121.403 237.766 121.892C238.262 122.377 238.51 123.133 238.51 124.159V130H237.169V124.159C237.169 123.515 236.993 123.055 236.641 122.778C236.288 122.502 235.874 122.364 235.396 122.364C234.783 122.364 234.307 122.549 233.97 122.92C233.633 123.288 233.464 123.754 233.464 124.318V130H232.101V124.023C232.101 123.527 231.94 123.127 231.618 122.824C231.296 122.517 230.881 122.364 230.374 122.364C230.025 122.364 229.699 122.456 229.396 122.642C229.097 122.828 228.855 123.085 228.669 123.415C228.487 123.741 228.396 124.117 228.396 124.545V130H227.055ZM246.325 133.273C246.098 133.273 245.895 133.254 245.717 133.216C245.539 133.182 245.416 133.148 245.348 133.114L245.689 131.932C246.015 132.015 246.303 132.045 246.553 132.023C246.803 132 247.024 131.888 247.217 131.688C247.414 131.491 247.594 131.17 247.757 130.727L248.007 130.045L244.78 121.273H246.234L248.643 128.227H248.734L251.143 121.273H252.598L248.893 131.273C248.727 131.723 248.52 132.097 248.274 132.392C248.028 132.691 247.742 132.913 247.416 133.057C247.094 133.201 246.731 133.273 246.325 133.273ZM257.601 130.182C256.813 130.182 256.122 129.994 255.527 129.619C254.936 129.244 254.474 128.72 254.141 128.045C253.811 127.371 253.646 126.583 253.646 125.682C253.646 124.773 253.811 123.979 254.141 123.301C254.474 122.623 254.936 122.097 255.527 121.722C256.122 121.347 256.813 121.159 257.601 121.159C258.389 121.159 259.078 121.347 259.669 121.722C260.264 122.097 260.726 122.623 261.055 123.301C261.389 123.979 261.555 124.773 261.555 125.682C261.555 126.583 261.389 127.371 261.055 128.045C260.726 128.72 260.264 129.244 259.669 129.619C259.078 129.994 258.389 130.182 257.601 130.182ZM257.601 128.977C258.199 128.977 258.692 128.824 259.078 128.517C259.464 128.21 259.75 127.807 259.936 127.307C260.122 126.807 260.214 126.265 260.214 125.682C260.214 125.098 260.122 124.555 259.936 124.051C259.75 123.547 259.464 123.14 259.078 122.83C258.692 122.519 258.199 122.364 257.601 122.364C257.002 122.364 256.51 122.519 256.124 122.83C255.737 123.14 255.451 123.547 255.266 124.051C255.08 124.555 254.987 125.098 254.987 125.682C254.987 126.265 255.08 126.807 255.266 127.307C255.451 127.807 255.737 128.21 256.124 128.517C256.51 128.824 257.002 128.977 257.601 128.977ZM269.102 126.432V121.273H270.443V130H269.102V128.523H269.011C268.807 128.966 268.489 129.343 268.057 129.653C267.625 129.96 267.08 130.114 266.42 130.114C265.875 130.114 265.39 129.994 264.966 129.756C264.542 129.513 264.208 129.15 263.966 128.665C263.723 128.176 263.602 127.561 263.602 126.818V121.273H264.943V126.727C264.943 127.364 265.121 127.871 265.477 128.25C265.837 128.629 266.295 128.818 266.852 128.818C267.186 128.818 267.525 128.733 267.869 128.562C268.218 128.392 268.509 128.131 268.744 127.778C268.983 127.426 269.102 126.977 269.102 126.432ZM272.899 130V121.273H274.195V122.591H274.286C274.445 122.159 274.732 121.809 275.149 121.54C275.566 121.271 276.036 121.136 276.558 121.136C276.657 121.136 276.78 121.138 276.928 121.142C277.075 121.146 277.187 121.152 277.263 121.159V122.523C277.217 122.511 277.113 122.494 276.95 122.472C276.791 122.445 276.623 122.432 276.445 122.432C276.02 122.432 275.642 122.521 275.308 122.699C274.979 122.873 274.717 123.116 274.524 123.426C274.335 123.733 274.24 124.083 274.24 124.477V130H272.899ZM283.352 133.273V121.273H284.648V122.659H284.807C284.905 122.508 285.042 122.314 285.216 122.08C285.394 121.841 285.648 121.629 285.977 121.443C286.311 121.254 286.761 121.159 287.33 121.159C288.064 121.159 288.712 121.343 289.273 121.71C289.833 122.078 290.271 122.598 290.585 123.273C290.9 123.947 291.057 124.742 291.057 125.659C291.057 126.583 290.9 127.384 290.585 128.062C290.271 128.737 289.835 129.259 289.278 129.631C288.722 129.998 288.08 130.182 287.352 130.182C286.792 130.182 286.343 130.089 286.006 129.903C285.669 129.714 285.409 129.5 285.227 129.261C285.045 129.019 284.905 128.818 284.807 128.659H284.693V133.273H283.352ZM284.67 125.636C284.67 126.295 284.767 126.877 284.96 127.381C285.153 127.881 285.436 128.273 285.807 128.557C286.178 128.837 286.633 128.977 287.17 128.977C287.731 128.977 288.199 128.83 288.574 128.534C288.953 128.235 289.237 127.833 289.426 127.33C289.619 126.822 289.716 126.258 289.716 125.636C289.716 125.023 289.621 124.47 289.432 123.977C289.246 123.481 288.964 123.089 288.585 122.801C288.21 122.509 287.739 122.364 287.17 122.364C286.625 122.364 286.167 122.502 285.795 122.778C285.424 123.051 285.144 123.434 284.955 123.926C284.765 124.415 284.67 124.985 284.67 125.636ZM293.102 130V121.273H294.398V122.591H294.489C294.648 122.159 294.936 121.809 295.352 121.54C295.769 121.271 296.239 121.136 296.761 121.136C296.86 121.136 296.983 121.138 297.131 121.142C297.278 121.146 297.39 121.152 297.466 121.159V122.523C297.42 122.511 297.316 122.494 297.153 122.472C296.994 122.445 296.826 122.432 296.648 122.432C296.223 122.432 295.845 122.521 295.511 122.699C295.182 122.873 294.92 123.116 294.727 123.426C294.538 123.733 294.443 124.083 294.443 124.477V130H293.102ZM302.335 130.182C301.547 130.182 300.856 129.994 300.261 129.619C299.67 129.244 299.208 128.72 298.875 128.045C298.545 127.371 298.381 126.583 298.381 125.682C298.381 124.773 298.545 123.979 298.875 123.301C299.208 122.623 299.67 122.097 300.261 121.722C300.856 121.347 301.547 121.159 302.335 121.159C303.123 121.159 303.813 121.347 304.403 121.722C304.998 122.097 305.46 122.623 305.79 123.301C306.123 123.979 306.29 124.773 306.29 125.682C306.29 126.583 306.123 127.371 305.79 128.045C305.46 128.72 304.998 129.244 304.403 129.619C303.813 129.994 303.123 130.182 302.335 130.182ZM302.335 128.977C302.934 128.977 303.426 128.824 303.812 128.517C304.199 128.21 304.485 127.807 304.67 127.307C304.856 126.807 304.949 126.265 304.949 125.682C304.949 125.098 304.856 124.555 304.67 124.051C304.485 123.547 304.199 123.14 303.812 122.83C303.426 122.519 302.934 122.364 302.335 122.364C301.737 122.364 301.244 122.519 300.858 122.83C300.472 123.14 300.186 123.547 300 124.051C299.814 124.555 299.722 125.098 299.722 125.682C299.722 126.265 299.814 126.807 300 127.307C300.186 127.807 300.472 128.21 300.858 128.517C301.244 128.824 301.737 128.977 302.335 128.977ZM312.223 121.273V122.409H307.518V121.273H312.223ZM308.928 130V120.068C308.928 119.568 309.045 119.152 309.28 118.818C309.515 118.485 309.82 118.235 310.195 118.068C310.57 117.902 310.965 117.818 311.382 117.818C311.712 117.818 311.981 117.845 312.189 117.898C312.397 117.951 312.553 118 312.655 118.045L312.268 119.205C312.2 119.182 312.106 119.153 311.984 119.119C311.867 119.085 311.712 119.068 311.518 119.068C311.075 119.068 310.755 119.18 310.558 119.403C310.365 119.627 310.268 119.955 310.268 120.386V130H308.928ZM314.102 130V121.273H315.443V130H314.102ZM314.784 119.818C314.523 119.818 314.297 119.729 314.108 119.551C313.922 119.373 313.83 119.159 313.83 118.909C313.83 118.659 313.922 118.445 314.108 118.267C314.297 118.089 314.523 118 314.784 118C315.045 118 315.269 118.089 315.455 118.267C315.644 118.445 315.739 118.659 315.739 118.909C315.739 119.159 315.644 119.373 315.455 119.551C315.269 119.729 315.045 119.818 314.784 119.818ZM319.24 118.364V130H317.899V118.364H319.24ZM325.355 130.182C324.514 130.182 323.789 129.996 323.179 129.625C322.573 129.25 322.105 128.727 321.776 128.057C321.45 127.383 321.287 126.598 321.287 125.705C321.287 124.811 321.45 124.023 321.776 123.341C322.105 122.655 322.563 122.121 323.151 121.739C323.741 121.352 324.431 121.159 325.219 121.159C325.673 121.159 326.122 121.235 326.565 121.386C327.009 121.538 327.412 121.784 327.776 122.125C328.139 122.462 328.429 122.909 328.645 123.466C328.861 124.023 328.969 124.708 328.969 125.523V126.091H322.241V124.932H327.605C327.605 124.439 327.507 124 327.31 123.614C327.116 123.227 326.84 122.922 326.48 122.699C326.124 122.475 325.704 122.364 325.219 122.364C324.685 122.364 324.223 122.496 323.832 122.761C323.446 123.023 323.149 123.364 322.94 123.784C322.732 124.205 322.628 124.655 322.628 125.136V125.909C322.628 126.568 322.741 127.127 322.969 127.585C323.2 128.04 323.52 128.386 323.929 128.625C324.338 128.86 324.813 128.977 325.355 128.977C325.707 128.977 326.026 128.928 326.31 128.83C326.598 128.727 326.846 128.576 327.054 128.375C327.262 128.17 327.423 127.917 327.537 127.614L328.832 127.977C328.696 128.417 328.467 128.803 328.145 129.136C327.823 129.466 327.425 129.723 326.952 129.909C326.478 130.091 325.946 130.182 325.355 130.182ZM331.986 130.091C331.705 130.091 331.465 129.991 331.264 129.79C331.063 129.589 330.963 129.348 330.963 129.068C330.963 128.788 331.063 128.547 331.264 128.347C331.465 128.146 331.705 128.045 331.986 128.045C332.266 128.045 332.507 128.146 332.707 128.347C332.908 128.547 333.009 128.788 333.009 129.068C333.009 129.254 332.961 129.424 332.866 129.58C332.776 129.735 332.652 129.86 332.497 129.955C332.346 130.045 332.175 130.091 331.986 130.091Z" fill="#8A8A8A"/>
</g>
<defs>
<clipPath id="clip0_375_40">
<rect width="361" height="92" fill="white" transform="translate(16 44)"/>
</clipPath>
</defs>
</svg>
